<?xml version="1.0" standalone="no"?>
<!DOCTYPE svg PUBLIC "-//W3C//DTD SVG 1.1//EN" "http://www.w3.org/Graphics/SVG/1.1/DTD/svg11.dtd" >
<svg xmlns="http://www.w3.org/2000/svg">
  <metadata>Created by iconfont</metadata>
  <defs>
  <font id="iconfont" horiz-adv-x="1024">
    <font-face
      font-family="iconfont"
      font-weight="400"
      font-stretch="normal"
      units-per-em="1024"
      ascent="896"
      descent="-128"
    />
      <missing-glyph />
      
      <glyph glyph-name="points-mall" unicode="&#58947;" d="M413.863 524.853c127.64 0 260.402 26.378 340.12 76.667v-91.556h73.87V710.427C827.85 830.935 614.618 896 413.992 896 213.349 896 0 830.935 0 710.427V163.32c0-120.508 213.232-185.573 413.863-185.573v69.273c-210.738 0-340.13 67.773-340.13 116.3V327.795c79.733-50.175 212.366-76.671 340.13-76.671V320.53c-210.738 0-340.13 67.753-340.13 116.285V601.397c79.733-50.176 212.489-76.544 340.13-76.544z m0 301.874c210.738 0 340.12-67.773 340.12-116.3 0-48.533-129.382-116.296-340.12-116.296S73.728 661.894 73.728 710.427c0 48.527 129.52 116.295 340.13 116.295z m330.894-339.854c-183.295 0-279.116-66.237-279.116-131.65V3.65c0-65.408 95.954-131.645 279.116-131.645 181.912 0 277.61 65.3 279.11 130.242h0.128V355.218c-0.128 65.418-95.948 131.655-279.244 131.655z m0-69.283c135.5 0 205.367-43.725 205.367-62.367 0-18.637-69.867-62.361-205.367-62.361s-205.378 43.724-205.378 62.361c0 18.642 69.872 62.367 205.378 62.367z m0-476.301c-135.506 0-205.378 43.724-205.378 62.36v83.943c46.797-23.92 115.543-39.86 205.378-39.86 89.83 0 158.458 15.94 205.367 39.86v-83.942c0-18.637-69.867-62.361-205.367-62.361z m0 175.845c-135.506 0-205.378 43.725-205.378 62.367v83.936c46.797-23.91 115.543-39.853 205.378-39.853 89.83 0 158.458 15.938 205.367 39.853v-83.936c0-18.637-69.867-62.367-205.367-62.367z m0 0"  horiz-adv-x="1024" />
      
      <glyph glyph-name="jiagou2" unicode="&#59103;" d="M347.136 112.64q19.456 0 36.864-7.168t30.72-19.968 20.48-30.208 7.168-36.864-7.168-36.864-20.48-30.208T384-69.12t-36.864-7.68q-20.48 0-37.376 7.68t-30.208 20.48-20.48 30.208-7.168 36.864 7.168 36.864 20.48 30.208 30.208 19.968 37.376 7.168z m425.984-2.048q19.456 0 37.376-7.168t30.72-19.968 20.48-30.208 7.68-36.864-7.68-36.864-20.48-30.208-30.72-20.48-37.376-7.68-36.864 7.68-30.208 20.48-20.48 30.208-7.68 36.864 7.68 36.864 20.48 30.208 30.208 19.968 36.864 7.168z m172.032 581.632q28.672 0 44.544-7.68t22.528-18.944 6.144-24.064-3.584-22.016-12.8-37.888-22.016-62.976-24.064-68.096-17.92-53.248q-13.312-40.96-33.792-56.832t-50.176-15.872h-537.6l15.36-92.16h516.096q49.152 0 49.152-41.984 0-20.48-9.728-35.328t-38.4-14.848H312.32q-20.48 0-34.304 9.216t-23.04 24.064-14.848 32.256-8.704 32.768q-1.024 6.144-5.632 29.696t-11.264 58.88-14.848 78.848-16.384 87.552q-19.456 103.424-44.032 230.4h-76.8q-15.36 0-25.6 7.68T19.968 750.08t-9.216 23.04-2.56 22.528q0 20.48 13.824 33.792t37.376 13.312h103.424q20.48 0 32.768-6.144t19.456-15.36 10.24-19.456 5.12-17.408q2.048-8.192 4.096-23.04t4.096-30.208q3.072-18.432 6.144-38.912h700.416z"  horiz-adv-x="1024" />
      
      <glyph glyph-name="jiagou1" unicode="&#59024;" d="M512-128c-282.787759 0-512 229.248343-512 512C0 666.787759 229.212241 896 512 896 794.751657 896 1024.036102 666.787759 1024.036102 384 1024.036102 101.212241 794.751657-128 512-128zM768.036102 435.19278l-204.80722 0L563.228882 640 460.843323 640l0-204.80722L256 435.19278l0-102.385559 204.80722 0 0-204.80722 102.385559 0 0 204.80722 204.80722 0L768 435.19278z"  horiz-adv-x="1025" />
      
      <glyph glyph-name="jiagou3" unicode="&#58915;" d="M872.021333 746.666667H341.333333v-85.333333h530.688q20.821333 0 33.664-16.426667 12.8-16.384 7.765334-36.608l-85.333334-341.333333q-3.584-14.208-15.146666-23.253334-11.562667-9.045333-26.282667-9.045333H327.424q-15.488 0-27.349333 9.941333-11.946667 9.941333-14.634667 25.216L203.946667 726.485334Q195.712 772.266667 160 802.133334 124.416 832 77.909333 832H0v-85.333333h77.909333q15.488 0 27.349334-9.941333 11.946667-9.984 14.634666-25.216L201.386667 254.848q8.192-45.824 43.861333-75.648 35.626667-29.866667 82.133333-29.866666h459.264q44.074667 0 78.805334 27.093333 34.730667 27.136 45.397333 69.845333l85.333333 341.333334q15.146667 60.586667-23.296 109.824Q934.528 746.666667 872.021333 746.666667zM213.333333 21.333334a85.333333 85.333333 0 1 1 170.666667 0 85.333333 85.333333 0 1 1-170.666667 0ZM725.333333 21.333334a85.333333 85.333333 0 1 1 170.666667 0 85.333333 85.333333 0 1 1-170.666667 0Z"  horiz-adv-x="1024" />
      
      <glyph glyph-name="plus" unicode="&#60147;" d="M449.156399 446.843601V886.748801h125.687202v-439.9052h439.905199v-125.687202h-439.905199v-439.905199h-125.687202v439.905199H9.2512v125.687202h439.905199z"  horiz-adv-x="1024" />
      
      <glyph glyph-name="arc" unicode="&#58926;" d="M508.814222 249.560178c-169.301333 0-333.141333 49.152-473.770667 142.176711-32.312889 21.390222-41.142045 64.898845-19.842844 97.211733 21.390222 32.312889 64.807822 41.142045 97.120711 19.751823 117.600711-77.824 254.7712-118.966045 396.401778-118.966045 144.1792 0 283.261155 42.507378 402.2272 122.88 32.039822 21.663289 75.639467 13.198222 97.302755-18.8416 21.663289-32.039822 13.198222-75.639467-18.8416-97.302755-142.085689-96.119467-308.292267-146.909867-480.597333-146.909867z"  horiz-adv-x="1024" />
      
      <glyph glyph-name="share" unicode="&#59104;" d="M967.84 743.456L766.336 828.8a40.928 40.928 0 0 1-30.688 0.48 38.784 38.784 0 0 1-1.216-72.32l117.856-49.856c-436.48-159.84-404.864-436.8-403.2-449.088 2.912-21.44 23.04-36.48 44.992-33.632 10.528 1.344 20.096 6.72 26.56 14.976a38.4 38.4 0 0 1 7.904 28.928c-0.32 2.368-25.952 230.496 360.448 368.672L852.96 516.768a38.224 38.224 0 0 1 3.328-29.76c5.088-9.12 13.696-15.872 23.904-18.784a40.43 40.43 0 0 1 11.264-1.6 40 40 0 0 1 38.4 28.16l60.512 201.824a38.848 38.848 0 0 1-22.528 46.88zM920 326.24c-22.048 0-39.936-17.888-39.936-39.936v-187.616c0-80.96-65.92-146.816-146.944-146.816H226.88A147.04 147.04 0 0 0 79.936 98.688V573.312c0 80.96 65.92 146.816 146.912 146.816h262.208a40 40 0 0 1 28.256 68.16A40 40 0 0 1 489.056 800H226.88C101.76 800 0 698.304 0 573.344v-474.656C0-26.304 101.76-128 226.88-128h506.24C858.24-128 960-26.304 960 98.688V286.336c0 22.048-17.92 39.904-40 39.904z"  horiz-adv-x="1024" />
      
      <glyph glyph-name="offline-pay" unicode="&#58989;" d="M128 810.666667h768a85.333333 85.333333 0 0 0 85.333333-85.333334v-554.666666a85.333333 85.333333 0 0 0-85.333333-85.333334H128a85.333333 85.333333 0 0 0-85.333333 85.333334V725.333333a85.333333 85.333333 0 0 0 85.333333 85.333334z m427.093333-426.666667l0.128 42.666667H640a42.666667 42.666667 0 0 1 0 85.333333h-62.037333l62.72 52.650667a42.666667 42.666667 0 1 1-54.912 65.365333l-65.365334-54.912-66.56 55.082667a42.666667 42.666667 0 1 1-54.4-65.706667L462.848 512H384a42.666667 42.666667 0 1 1 0-85.333333h85.888l-0.170667-42.666667H384a42.666667 42.666667 0 0 1 0-85.333333h85.461333l-0.128-36.394667c-0.085333-26.922667 18.944-48.853333 42.496-48.938667 23.594667-0.085333 42.752 21.632 42.837334 48.597334l0.128 36.736H640a42.666667 42.666667 0 0 1 0 85.333333h-84.906667zM213.333333-85.333333h597.333334a42.666667 42.666667 0 0 1 0 85.333333H213.333333a42.666667 42.666667 0 0 1 0-85.333333z"  horiz-adv-x="1024" />
      
      <glyph glyph-name="collected" unicode="&#59098;" d="M756.3008-82.45248000000004c-14.208 0-28.48768 3.42528-41.68192 10.36288l-194.7904 102.4a18.29376 18.29376 0 0 1-17.08032 0l-194.76992-102.4c-30.4128-15.91808-66.45248-13.28128-94.22336 6.83008-27.7504 20.16256-41.38496 53.69856-35.59936 87.49056l37.1968 216.88832a18.36544 18.36544 0 0 1-5.27872 16.25088L52.5056 408.96C27.95008 432.91648 19.26656 468.07552 29.87008 500.6848c10.5984 32.60928 38.28224 55.96672 72.21248 60.89728l217.76896 31.6416a18.33984 18.33984 0 0 1 13.84448 10.06592l97.37216 197.31456c15.1808 30.76096 45.91616 49.85344 80.22016 49.85344h0.02048c34.29888 0 65.03936-19.11808 80.19968-49.85344l97.39264-197.33504a18.41152 18.41152 0 0 1 13.81376-10.04544l217.77408-31.6416c33.95584-4.93056 61.63456-28.28288 72.23296-60.89728 10.5984-32.63488 1.92-67.76832-22.66112-91.7248l-157.568-153.59488a18.39616 18.39616 0 0 1-5.27872-16.29184l37.1968-216.82688c5.8112-33.79712-7.82336-67.328-35.57376-87.48544-15.68768-11.41248-34.03776-17.21344-52.53632-17.21344z"  horiz-adv-x="1024" />
      
      <glyph glyph-name="collect" unicode="&#58900;" d="M756.3030255-82.45528451999996c-14.21112041 0-28.49114701 3.42525052-41.68425069 10.36910608L519.82961943 30.30790873000001c-5.32347485 2.8239976-11.71164423 2.8239976-17.08068476 0l-194.76692805-102.39408717c-30.4127097-15.92374567-66.45007623-13.28534714-94.22438742 6.82827264-27.75097282 20.15918654-41.3830687 53.69707582-35.59726329 87.48835824l37.19430563 216.89324404c1.01801674 5.94806614-0.94911162 12.03505354-5.27679705 16.2482671l-157.57262242 153.59168682c-24.55688813 23.9556352-33.2367073 59.11279414-22.63643648 91.72379913s38.28233852 55.96538725 72.2125433 60.89543664l217.7723395 31.63966494c5.99474393 0.85686815 11.15595807 4.62886633 13.84103331 10.0679241l97.37179431 197.31197099c15.18357147 30.75945844 45.91969156 49.85506149 80.2210934 49.85506148 0.02333836 0 0.02333836 0 0.02333836 0 34.30140292 0 65.03752192-19.11783036 80.19775502-49.85506148l97.39513376-197.33531043c2.68507632-5.41571833 7.84629046-9.16548918 13.81769495-10.04458466l217.77233951-31.63966494c33.95354314-4.93004831 61.63560976-28.28331955 72.23588166-60.89543664 10.6002719-32.63434333 1.92156269-67.76927495-22.6586638-91.72379913l-157.57262243-153.59168682c-4.32768435-4.21210143-6.29592592-10.29908992-5.27679705-16.29383277l37.19430563-216.82322789c5.80914378-33.79239347-7.82295102-67.32917171-35.57392384-87.48835824C793.15058238-76.64613965000001 774.79626457-82.45528451999996 756.3030255-82.45528451999996zM511.28872153 103.53846877000001c14.32670332 0 28.60784097-3.42525052 41.66091124-10.29908992l194.7435897-102.37074882c9.14215082-4.79112704 16.54833695-0.57902561 19.34899619 1.38921596 2.7773198 2.0371456 9.02656791 7.82295102 7.29060431 17.96089127l-37.19430563 216.86990569c-4.95338775 29.07017154 4.67554413 58.67269089 25.73716557 79.20307666l157.57262243 153.59168682c7.38284777 7.19835974 5.71690031 15.57699801 4.65220577 18.83998782-1.06469453 3.26298981-4.62886633 11.01703571-14.83571169 12.49849624L692.51468614 522.85933226c-29.14018878 4.21210143-54.3216671 22.51974144-67.35251115 48.92928823l-97.39513375 197.33531043 0 0c-4.55996121 9.2343943-13.03084295 10.2301848-16.45609347 10.2301848l-0.02333836 0c-3.42525052 0-11.91947062-0.99578942-16.47943184-10.2301848l-97.37179431-197.33531043c-13.07752076-26.43177302-38.25900016-44.71607466-67.3758495-48.92928823l-217.74900115-31.63966494c-10.18350701-1.48145943-13.74767879-9.2343943-14.81237334-12.49849624-1.06469453-3.26298981-2.73064199-11.641627 4.65220578-18.83998782l157.54928407-153.59168682c21.10829925-20.57595143 30.71389168-50.17847079 25.73716557-79.20307666L248.24350906 10.217627300000004c-1.73596362-10.13794025 4.53662285-15.94708511 7.31394265-17.96089126 2.75398144-1.9904678 10.13794025-6.17923088 19.34899619-1.38921597l194.7435897 102.39408719C482.70422 100.11321825000005 497.00758388 103.53846877000001 511.28872153 103.53846877000001z"  horiz-adv-x="1024" />
      
      <glyph glyph-name="jingli" unicode="&#59081;" d="M202.85-65.54999999999995C125.45-65.54999999999995 62-2.5499999999999545 62 75.29999999999995V693.15C62 770.55 125 834 202.85 834h772.65c77.4 0 140.85-63 140.85-140.85v-618.3c0-77.4-63-140.85-140.85-140.85l-772.65 0.45z m0 823.95c-35.55 0-65.25-29.25-65.25-65.25v-618.3c0-35.55 29.25-65.25 65.25-65.25h772.65c35.55 0 65.25 29.25 65.25 65.25V693.15c0 35.55-29.25 65.25-65.25 65.25H202.85zM923.75 166.20000000000005c-21.15 0-37.35 17.1-37.35 37.35 0 63.9-52.2 117-117 117s-117-52.2-117-117c0-21.15-17.1-37.35-37.35-37.35-21.15 0-37.35 17.1-37.35 37.35 0 66.15 33.75 126.9 89.55 162-24.75 26.1-38.25 60.3-38.25 95.85 0 77.4 63 140.85 140.85 140.85 77.4 0 140.85-63 140.85-140.85 0-35.55-13.95-69.75-38.25-95.85C928.25 330.45000000000005 962 269.70000000000005 962 203.54999999999995c0-20.25-17.1-37.35-38.25-37.35zM769.85 526.65c-35.55 0-65.25-29.25-65.25-65.25s29.25-65.25 65.25-65.25 65.25 29.25 65.25 65.25-29.7 65.25-65.25 65.25z m0 0M482.3 526.2H251c-22.05 0-39.15 17.55-39.15 39.15 0 21.6 17.55 39.15 39.15 39.15h230.85c22.05 0 39.15-17.55 39.15-39.15 0.45-21.6-17.1-39.15-38.7-39.15z m0-181.35H251c-22.05 0-39.15 17.55-39.15 39.15 0 21.6 17.55 39.15 39.15 39.15h230.85c22.05 0 39.15-17.55 39.15-39.15 0.45-21.6-17.1-39.15-38.7-39.15z m0-179.1H251c-22.05 0-39.15 18-39.15 39.15 0 22.05 17.55 39.15 39.15 39.15h230.85c22.05 0 39.15-17.55 39.15-39.15 0.45-21.6-17.1-39.15-38.7-39.15z m0 0"  horiz-adv-x="1199" />
      
      <glyph glyph-name="order-c" unicode="&#58963;" d="M978.578286-4.461714000000029l-108.617143 108.617143c30.134857 39.570286 48.274286 88.795429 48.274286 142.189714a235.739429 235.739429 0 0 1-235.52 235.373714 235.739429 235.739429 0 0 1-235.373715-235.373714 235.739429 235.739429 0 0 1 235.446857-235.52c53.467429 0 102.692571 18.139429 142.189715 48.274286l108.617143-108.544a31.524571 31.524571 0 0 1 44.836571 0 31.744 31.744 0 0 1 0.146286 44.982857zM510.902857 246.345143a172.105143 172.105143 0 0 0 171.885714 171.885714 171.885714 171.885714 0 0 0 0-343.771428 172.178286 172.178286 0 0 0-171.885714 171.885714z m270.262857 378.514286c0-17.554286-14.262857-31.744-31.817143-31.744H431.396571a31.744 31.744 0 0 0 0 63.488h317.952c17.554286 0 31.817143-14.189714 31.817143-31.744z m-609.426285-620.032h211.968a31.890286 31.890286 0 0 0 0-63.634286H171.739429c-58.368 0-106.057143 47.542857-106.057143 106.057143V612.937143c0 14.262857 5.12 28.086857 14.262857 39.058286L240.420571 842.898286a57.417143 57.417143 0 0 0 43.885715 20.48h517.997714c58.441143 0 106.057143-47.542857 106.057143-106.057143V529.554286a31.744 31.744 0 0 0-63.634286 0V757.394286a42.422857 42.422857 0 0 1-42.276571 42.349714H336.018286V615.8628570000001a50.688 50.688 0 0 0-50.980572-50.176H129.389714v-518.509714c0-23.332571 19.017143-42.349714 42.349715-42.349714zM272.457143 782.189714l-128.512-152.868571h128.512v152.868571z m79.506286-476.16a31.744 31.744 0 0 1 0 63.634286H240.64a31.744 31.744 0 0 1 0-63.634286h111.323429z m0-146.066285a31.744 31.744 0 0 1 0 63.561142H240.64a31.744 31.744 0 0 1 0-63.561142h111.323429z m31.744 353.206857H240.64a31.744 31.744 0 0 1 0-63.561143h143.067429a31.744 31.744 0 0 1 0 63.561143z"  horiz-adv-x="1024" />
      
      <glyph glyph-name="shouye2" unicode="&#58893;" d="M828.509091-104.72727299999997h-186.181818c-27.927273 0-46.545455 18.618182-46.545455 46.545455v223.418182c0 13.963636-9.309091 23.272727-23.272727 23.272727H451.490909c-13.963636 0-23.272727-9.309091-23.272727-23.272727v-223.418182c0-27.927273-18.618182-46.545455-46.545455-46.545455h-186.181818c-51.2 0-93.090909 41.890909-93.090909 93.090909v400.290909c0 27.927273 18.618182 46.545455 46.545455 46.545455s46.545455-18.618182 46.545454-46.545455v-353.745454c0-27.927273 18.618182-46.545455 46.545455-46.545455h93.090909v246.690909c0 27.927273 18.618182 46.545455 46.545454 46.545455h260.654546c27.927273 0 46.545455-18.618182 46.545454-46.545455v-246.690909h93.090909c27.927273 0 46.545455 18.618182 46.545455 46.545455v353.745454c0 27.927273 18.618182 46.545455 46.545454 46.545455s46.545455-18.618182 46.545455-46.545455v-400.290909c0-51.2-41.890909-93.090909-93.090909-93.090909zM567.854545 854.109091c-32.581818 27.927273-83.781818 27.927273-116.363636 0l-418.909091-335.127273c-37.236364-27.927273-18.618182-83.781818 27.927273-83.781818 9.309091 0 18.618182 4.654545 27.927273 9.309091L512 784.290909l428.218182-339.781818c9.309091-4.654545 18.618182-9.309091 27.927273-9.309091 46.545455 0 65.163636 55.854545 27.927272 83.781818L567.854545 854.109091z"  horiz-adv-x="1024" />
      
      <glyph glyph-name="youhuiquan" unicode="&#58994;" d="M1118.85096179 276.3245191l-4.21875 6.49038456c-23.81971179 37.125-36.08653821 65.35817275-36.08653903 101.89903902 0 36.34615366 10.25480732 59.71153821 32.45192358 95.66826911l5.38701911 10.38461546c18.69230732 31.15384634 44.91346179 56.33653821 75.9375 73.47115364V712.5432691c0 16.09615366-11.68269268 28.1682691-24.9879809 28.16826911H180.14663455c-13.37019269 0-25.05288455-12.07211545-25.05288455-28.1682691v-147.20192277c32.51682725-17.00480731 61.00961545-42.64182724 80.48076911-73.73076909 23.23557725-40.88942275 34.33413455-68.47355732 34.33413455-107.8701927 0-40.69471179-12.85096179-72.88701911-36.34615366-113.3870191-18.23798089-29.79086545-45.49759634-53.28605732-78.46875-69.1875v-146.16346179c0-15.96634634 11.22836545-27.51923089 24.9879809-27.25961545h988.22596179c13.30528821 0 24.9879809 12.1370191 24.98798006 28.23317358V204.73557725a197.50240366 197.50240366 0 0 0-74.44471096 71.58894185zM90.18990366 55.00240366000003V246.98798089000002c39.20192275 8.7620191 70.74519269 29.14182724 88.00961545 57.24519187 9.54086545 16.48557725 26.80528821 47.50961545 26.80528821 79.50721179 0 30.11538455-15.31730732 57.24519269-25.83173007 75.67788455C160.93509634 488.49519268 126.53605732 512.76923089 90.18990366 520.4927882100001V712.5432691C90.18990366 763.94711545 130.36538455 805.61538455 180.08173089 805.61538455h987.25240366c49.78125 0 89.95673089-41.6682691 89.9567309-93.07211544v-192.0504809a137.14182725 137.14182725 0 0 1-85.15384635-63.02163455l-2.8557691-5.84134635c-12.46153821-20.37980731-25.8317309-42.64182724-25.8317309-66.85096097 0-24.27403821 13.37019269-47.5745191 25.8317309-66.98076909l3.82932725-5.84134635a133.70192275 133.70192275 0 0 1 85.08894185-62.9567309v-193.02403821c0-51.40384634-40.17548089-93.1370191-89.89182642-93.1370191H180.08173089C130.43028821-38.134615449999956 90.18990366 3.663461790000042 90.18990366 55.00240366000003zM748.31490366 189.28846179000004a12.9807691 12.9807691 0 0 0-12.98076911 12.9807691V280.08894267999995H628.89182724a19.47115366 19.47115366 0 0 0-19.47115449 19.47115366V319.74519267999995a19.47115366 19.47115366 0 0 0 19.47115449 19.47115366h106.44230731v51.33894187H628.89182724a19.47115366 19.47115366 0 0 0-19.47115449 19.47115448v21.80769186a19.47115366 19.47115366 0 0 0 19.47115449 19.47115366h88.78846097L646.22115366 547.55769268a19.47115366 19.47115366 0 0 0 15.57692359 31.08894187h33.94471096a19.47115366 19.47115366 0 0 0 15.70673089-7.9182691l61.00961545-82.94711545 67.82451911 83.66105731a19.47115366 19.47115366 0 0 0 15.12259634 7.20432724h28.36298089a18.62740366 18.62740366 0 0 0 14.79807642-29.8557691l-74.37980731-97.5504809H914.46875a19.47115366 19.47115366 0 0 0 19.47115366-19.47115366V409.96153821a19.47115366 19.47115366 0 0 0-19.47115366-19.47115366h-106.05288455v-51.27403821H914.46875a19.47115366 19.47115366 0 0 0 19.47115366-19.47115365v-20.25a19.47115366 19.47115366 0 0 0-19.47115366-19.47115448h-106.05288455V208.75961544999996a19.47115366 19.47115366 0 0 0-19.47115366-19.47115366h-40.56490448zM381.99759634 676.06730732c17.71875 0 32.12740366-14.40865366 32.12740366-32.12740366v-519.87980732a32.12740366 32.12740366 0 1 0-64.25480732 0v519.87980732C349.80528821 661.65865366 364.21394269 676.06730732 381.93269269 676.06730732z"  horiz-adv-x="1417" />
      
      <glyph glyph-name="kanjia" unicode="&#59189;" d="M258.08896 257.31072l-60.2112-34.816-111.69792 193.45408a118.66112 118.66112 0 0 0-19.33312 96.37888l60.45696 284.4672A122.79808 122.79808 0 0 0 272.91648 891.45344l284.18048-60.416c37.84704-8.43776 69.18144-34.97984 85.31968-69.14048l122.38848-212.04992-60.2112-34.77504-65.16736 112.88576-0.16384-0.8192L581.2224 727.6544 135.90528 470.54848 200.704 358.1952l-1.06496 0.2048 58.40896-101.1712z m102.4-177.3568l61.44-106.41408a53.248 53.248 0 0 1 72.704-19.53792l354.34496 204.5952a53.248 53.248 0 0 1 19.456 72.704l-61.44 106.41408 60.2112 34.816 61.44-106.45504a122.79808 122.79808 0 0 0-44.8512-167.77216l-354.34496-204.5952a122.79808 122.79808 0 0 0-167.77216 45.056l-61.44 106.41408 60.25216 34.77504z m-224.6656 390.5536l445.56288 257.2288a58.81856 58.81856 0 0 1-38.78912 35.2256L258.4576 823.296a53.248 53.248 0 0 1-63.11936-41.00096L134.88128 497.8688c-2.00704-9.4208-1.59744-18.80064 0.94208-27.36128zM119.56224 89.53856L910.5408 546.24256a34.816 34.816 0 0 0 34.816-60.29312L154.4192 29.24544a34.816 34.816 0 0 0-34.816 60.29312zM368.64 553.32864a40.96 40.96 0 1 1-40.96 70.94272 40.96 40.96 0 0 1 40.96-70.94272z m30.72-53.248a102.4 102.4 0 1 0-102.4 177.39776 102.4 102.4 0 0 0 102.4-177.3568z"  horiz-adv-x="1024" />
      
      <glyph glyph-name="pintuan" unicode="&#58993;" d="M286.39796826 752.60038095c114.20444444 69.26526984 250.6128254 82.47161905 376.22349206 37.93269841 105.15403175-37.28253968 189.74780952-119.43111111 238.71796825-218.45333333 51.2528254-103.67187302 53.10984127-226.38526984 14.84393651-334.28520635-37.28253968-105.15403175-119.42603175-189.75288889-218.4431746-238.71796825-161.89968254-80.03149206-361.73206349-40.62679365-488.59631746 84.4119365C63.69015873 226.89726984000004 45.53142857 456.59123809 155.59720635 626.16279365c27.4824127 42.34361905-40.09244444 81.40495238-67.36761905 39.37828571C11.05371429 546.64126984-12.60190476 401.24444444 20.45155556 263.68609523c27.7231746-115.36965079 99.04253968-214.85409524 192.77511111-285.87682539 195.97307937-148.50234921 479.23504762-121.6528254 654.03326984 45.76 176.65625397 169.18247619 201.65892063 452.58869841 63.34679365 652.60901587C780.31034921 893.49282539 481.92914286 956.9015873 254.22222223 824.33015873l-7.20355556-4.36419048c-42.94196825-26.04292063-3.7607619-93.52939683 39.37828571-67.36660317zM322.77028572 612.29104762c1.47301587 14.95873016 11.97409524 23.20761905 31.46260317 24.71619047 17.97587302-1.50857143 27.70285714-9.75746032 29.21650794-24.71619047v-74.15974604h22.46907936c16.46730159-1.51365079 25.45980952-11.23555556 26.96838096-29.21650793 0-19.48850794-8.24888889-29.98450794-24.71619048-31.4615873h-24.71619048v-89.88850794a153.22920635 153.22920635 0 0 0 15.72774604 8.99352381c4.49422222 2.97955556 8.2184127 5.23174603 11.23555555 6.74031746 17.98095238 7.47987302 30.68647619 3.72419048 38.20292064-11.23453968 10.46450794-16.50387302 5.23174603-32.9711746-15.72876191-49.43847619-8.98742857-6.00177778-21.73663492-13.48673016-38.20292063-22.47415873-4.49422222-3.01714286-8.24888889-5.26425397-11.23555556-6.74133334v-168.54146031c2.98666667-20.96152381-17.24139683-30.68749206-60.67809524-29.2104127-44.94425397-2.98565079-65.17130159 10.50107937-60.67809524 40.44495238 1.47301587 16.47238095 9.72698413 25.45980952 24.71619048 26.97346032h6.74133333c20.96152381-1.51365079 30.68749206 2.98057143 29.21650794 13.48165079v87.64749206c-4.49422222-3.02222222-10.50209524-6.7464127-17.98095238-11.23555555-3.02222222 0-5.26933333-0.77511111-6.74133333-2.25219048-17.97587302-6.00177778-31.46260317 0-40.45003175 17.98095238-7.51644444 16.46730159 0 31.45752381 22.47415873 44.94425397 2.98666667 1.47301587 5.23174603 2.98565079 6.74133333 4.49422222 13.48063492 4.49422222 25.45980952 11.23453968 35.95580953 20.22806349V477.45320635h-47.19644445c-14.99428571 1.47707937-23.2431746 11.97307937-24.72126984 31.4615873 1.47707937 17.98095238 9.72596825 27.70285714 24.72126984 29.21650793h47.19136508v74.15873016z m312.36266666-62.92012699c8.99250794 10.46552381 16.46730159 25.4608254 22.46907937 44.94425397 0-1.50857143 0.74361905 0 2.24711111 4.49422222 7.47987302 20.96050794 15.73384127 32.93460317 24.72126984 35.95580953 17.97587302 4.49422222 31.46260317 0.73853968 40.45104762-11.23453969 4.49320635-10.50107937 4.49320635-19.48850794 0-26.96838095-4.49422222-12.00965079-12.01473016-27.7384127-22.4751746-47.19136508h40.45003174c17.98095238-1.50857143 27.70285714-12.00965079 29.21650794-31.4615873-1.51365079-19.48952381-10.50209524-29.99161905-26.97447619-31.46260317h-26.96330159v-148.31949207h26.96330159c19.45295238 0 30.68749206-9.76253968 33.70971429-29.21650793 1.47707937-20.99707937-7.51034921-32.23161905-26.96838096-33.70361905h-33.70463492v-146.07238095c-1.51365079-16.46730159-12.74819048-24.71619048-33.70971428-24.71619048-19.48850794 3.01714286-29.98450794 12.74311111-31.45650794 29.2104127V275.20711111H558.73015873c-10.50615873-67.4184127-35.21726984-119.104-74.15873016-155.05980953-16.50488889-13.48774603-33.70971429-16.46730159-51.69066666-8.99352381-20.99809524 12.00965079-26.22984127 25.49130159-15.72876191 40.45003175 35.95580952 40.44495238 59.90298413 81.63453968 71.91263492 123.59822222h-35.95682539c-14.99428571 1.472-23.2431746 11.97307937-24.71619048 31.4615873 1.47301587 19.45396825 9.72698413 29.95504762 24.71619048 31.46361905h40.45104762V486.44673016h-29.21650794c-14.98920635 1.47098413-23.2431746 11.97307937-24.71619048 31.4615873 1.47707937 19.45396825 9.72698413 29.95403175 24.71619048 31.46260317h33.70971429c-4.49320635 4.49422222-12.00965079 17.20584127-22.47415873 38.20393651 1.47707937-3.01714286 0-0.77003175-4.49422223 6.74031746-4.49422222 13.48673016-2.24711111 25.4608254 6.74133334 35.9568254 17.98095238 8.99250794 32.20114286 7.47885714 42.69714285-4.49422223a786.10996825 786.10996825 0 0 0 29.21549207-44.94425396c7.47885714-14.99428571 8.2184127-25.49130159 2.24711111-31.46158731h83.1471746z m-76.40177777-62.92419047v-148.31949207h94.38273016V486.44673016H558.73015873z"  horiz-adv-x="1024" />
      
      <glyph glyph-name="alipay" unicode="&#59091;" d="M1024 195V699q0 53-26.5 98t-72 71.5T827 895H197q-53 0-98.5-26.5T26.5 797 0 699v-630q0-54 26.5-99t72-71.5T197-128h630q47 0 88.5 21t69 58 36.5 83l-6 2Q739 156 624 210q-71-86-143-127-81-46-182-46-69 0-123 26-53 26-80 70.5T75 231q4 43 25 78 28 45 79 68 64 27 160 18 65-6 119-19 33-8 100-31l31-10q35 64 57 139H248v40h197v70H205v44h240V730l1 4q2 5 6.5 8.5T465 746h98v-118h256v-44H563v-70h209q-29-116-85-213 38-14 191-61l146-45m-740-91q-69 0-111 26-35 21-48 56-12 28-7 52 5 21 20 41 18 22 45 35 31 15 70 15 70 0 139-19 66-18 145-56-55-72-119-110-66-40-134-40z"  horiz-adv-x="1024" />
      
      <glyph glyph-name="balance-pay" unicode="&#59092;" d="M1024 42v-6q0-44-22-82t-60-60-82-22H164q-45 0-82.5 22T22-46 0 36V732q0 44 22 82t59.5 60T164 896h695q45 0 82.5-22t60-59.5T1024 732v-690M780 497q-29 30-63 55l-10 7q24 12 38 32t14 44.5-15 45.5-40 32.5-55 11.5q-19 0-37-6-7-2-13-6-1-1-4 0t-4 2q-7 11-21 23-25 22-58 21.5T454 738q-14-12-21-23-1-1-4-1.5t-4-0.5q-6 4-13 6-17 6-37 6-30 0-55-11.5T280 681t-15-45.5 14-44.5 38-32q-3-2-8-6l-2-1q-31-22-63-55-95-97-95-205 0-101 50-168 45-60 129-89 76-27 180-27h8q104 0 180 27 84 29 129 89 50 67 50 168 0 108-95 205M616 303h-75v-29h55q12 0 20.5-8.5T625 245t-8.5-20.5T596 216h-55v-44q0-12-8.5-20.5T512 143t-20.5 8.5T483 172v44h-58q-12 0-20.5 8.5T396 245t8.5 20.5T425 274h58v29h-75q-12 0-20.5 8.5T379 332t8.5 20 20.5 8h34l-25 54q-9 9-9 21t8.5 20.5T437 464t21-9l54-83 58 83q9 9 21 9t20.5-8.5T620 435t-9-21l-30-54h35q12 0 20-8t8.5-20-8-20.5T616 303z"  horiz-adv-x="1024" />
      
      <glyph glyph-name="wechat-pay" unicode="&#59093;" d="M783 896H241q-66 0-121-32.5T32.5 776 0 655v-542q0-66 32.5-121t87.5-87.5 121-32.5h542q66 0 121 32.5t87.5 87.5 32.5 121V655q0 66-32.5 121T904 863.5 783 896M512 111q-56 0-109 15-16-3-30-9l-67-42q-30-20-19 15l14 53q2 15-2 31-62 41-97 101-36 61-36 131 0 79 47 148 46 67 124 106 81 40 175 40 86 0 161-34 73-33 121-90L472 422q-18-10-34.5-10T405 427l-52 46q-35 10-25-23l56-136q10-16 25-18t38 14l374 228q37-62 37-132 0-80-47-149-46-67-124-106-81-40-175-40z"  horiz-adv-x="1024" />
      
      <glyph glyph-name="poster" unicode="&#58906;" d="M411.2 508.488c0-46.368-37.296-83.664-83.664-83.664s-83.664 37.296-83.664 83.664 37.296 83.664 83.664 83.664S411.2 554.352 411.2 508.488zM994.832 676.32V82.608c0-1.512 0-3.024-0.504-4.536 0-1.008 0-1.512-0.504-2.52 0-1.512-0.504-3.024-0.504-4.536 0-1.008-0.504-1.512-0.504-2.016-0.504-1.512-0.504-3.024-1.008-4.536 0-0.504-0.504-1.512-0.504-2.016-0.504-1.512-1.008-3.024-1.008-4.536 0-0.504-0.504-1.008-0.504-1.512-0.504-1.512-1.008-3.528-1.512-5.04 0-0.504 0-0.504-0.504-1.008-0.504-2.016-1.512-4.032-2.016-6.048-18.648-45.864-63.504-78.12-115.92-78.12H154.664c-69.048 0-125.496 55.944-125.496 125.496V676.32c0 69.048 55.944 125.496 125.496 125.496H869.84c69.048-0.504 124.992-56.448 124.992-125.496z m-83.664-397.152V676.32c0 23.184-18.648 41.832-41.832 41.832H154.664c-23.184 0-41.832-18.648-41.832-41.832v-584.64c0-23.184 18.648-41.832 41.832-41.832h53.928l407.232 407.232c32.76 32.76 85.68 32.76 117.936 0l177.408-177.912z"  horiz-adv-x="1024" />
      
      <glyph glyph-name="weixin" unicode="&#58894;" d="M867.084364 577.65804c6.226235 0 12.344502-0.119966 18.45077-0.407885C853.216295 753.252272 671.413822 887.99808 451.981616 887.99808c-242.28573 0-438.648475-164.251446-438.648475-366.866819 0-118.79633 67.492871-224.432389 172.177601-291.444196 1.355615-0.857757 4.024859-2.531283 4.024859-2.531283l-42.395984-132.778367 158.579454 80.773106c0 0 4.962993-1.439592 7.461885-2.147391 43.601642-12.134561 90.292408-18.714695 138.80066-18.714696 9.903193 0 19.718811 0.377893 29.472047 0.911742-8.987853 27.880098-13.928053 57.235778-13.928053 87.527193C467.52681 427.689745 646.466893 577.65804 867.084364 577.65804zM604.622753 707.119346c34.022358 0 61.554554-26.680438 61.554554-59.653092 0-32.906673-27.532197-59.647095-61.554554-59.647095-34.052349 0-61.580947 26.740421-61.580947 59.647095C543.041806 680.438909 570.570404 707.119346 604.622753 707.119346zM299.340478 587.81916c-34.022358 0-61.584546 26.740421-61.584545 59.647095 0 32.972655 27.562188 59.653093 61.584545 59.653092 34.054747 0 61.646927-26.680438 61.646928-59.653092C360.985007 614.559581 333.395227 587.81916 299.340478 587.81916zM499.790466 240.554784c0-171.185481 165.954963-309.95495 370.63975-309.95495 40.96239 0 80.395213 5.578419 117.24277 15.859505 2.111402 0.56384 6.286219 1.823483 6.286218 1.823483l133.918044-68.284646-35.785857 112.186204c0 0 2.297349 1.439592 3.413032 2.141392 88.384949 56.623951 145.440778 145.830668 145.440779 246.229012 0 171.149491-165.888983 309.894967-370.513786 309.894967C665.745429 550.449751 499.790466 411.710274 499.790466 240.554784zM947.299629 347.300529c0 27.796122 23.267405 50.331735 52.011258 50.331735 28.79184 0 52.065244-22.535613 52.065244-50.331735 0-27.856105-23.273404-50.421709-52.065244-50.421709C970.567034 296.878821 947.299629 319.444425 947.299629 347.300529zM689.390728 347.300529c0 27.796122 23.303395 50.331735 52.04125 50.331735 28.767847 0 52.065244-22.535613 52.065244-50.331735 0-27.856105-23.297397-50.421709-52.065244-50.421709C712.694122 296.878821 689.390728 319.444425 689.390728 347.300529z"  horiz-adv-x="1248" />
      
      <glyph glyph-name="qzone" unicode="&#58946;" d="M773.96535372 226.72768678c-106.36888097 8.42388995-212.77215966 16.84777989-319.14104063 25.27058624 5.74996914 2.80868571 11.50215748 5.61412063 17.24990741 8.42172274 97.74392726 70.18680211 195.52114265 140.39419259 293.26506991 210.58099472-5.74996914 0-11.50215748 0-17.25212661 0-105.60214444 45.60104973-430.78387051 35.43256719-526.14880629-8.42172275 126.49155373-8.42388995 253.02527241-16.8466963 379.51682613-25.27058625-2.87609417-5.61412063-5.74996914-11.23149206-8.6249537-16.8456127-103.49611561-67.37703281-207.01775211-134.77898836-310.51386771-202.15818835 0-2.80868571 0-5.61303703 0-8.42280635 188.72259752-25.40278519 394.63851263-2.60388571 569.27579401 16.84669629 0-2.80868571 0-5.61520424 0-8.42280635-5.74774992 0-11.50215748 0-17.2499074 0-31.96991716-25.15897566-37.01750681-11.42979048-43.12809732-67.38678518 14.37492284-70.18571852 28.75317448-140.39419259 43.12809732-210.57882752-2.87609417-2.81193651-5.74996914-5.61520424-8.6249537-8.42280635-11.49882867 0-23.00320535 0-34.50314362 0-69.05178101 58.32899048-193.55714316 142.21572063-301.88780442 151.61809947-89.12230237-50.5368381-178.26568723-101.08342857-267.38798959-151.61809947-11.49771906 5.61195344-23.00320535 11.23149206-34.50203403 16.84452911 20.12267276 109.49214814 40.25422235 219.01788783 60.37800473 328.50786878-80.49623907 72.99440424-161.01467022 146.00831322-241.51090929 219.00271746 1.9395882 5.68022011 3.87695719 11.35935662 5.81543578 17.03849312 0.31179879 0.91455662 0.62470718 1.82911322 0.93650598 2.74258624 0.62470718 1.82911322 1.24830476 3.65931005 1.87301194 5.48842329 106.36888097 14.03692698 212.77105006 28.07927195 319.13993102 42.11728254 57.49747213 101.0704254 115.01158834 202.16468995 172.50795087 303.23619893 5.74996914 0 11.50215748 0 17.25212662 0 48.87140883-103.87586032 97.75946172-207.78422857 146.63198014-311.66008888 112.11663089-11.22824127 224.27098832-22.46406773 336.38872883-33.69339259 2.87831338-5.61412063 5.74996914-11.23257566 8.6249537-16.8456127-80.49512947-78.60960846-161.01467022-157.24088889-241.50979969-235.85158095C773.96535372 254.80695873000002 773.96535372 240.76569734999998 773.96535372 226.72768678z"  horiz-adv-x="1024" />
      
      <glyph glyph-name="link" unicode="&#58899;" d="M262.4-121.60000000000002c-64 0-128 25.6-179.2 76.8-102.4 102.4-102.4 262.4 0 364.8l134.4 134.4 89.6-89.6-134.4-134.4c-51.2-51.2-51.2-128 0-179.2 51.2-51.2 128-51.2 179.2 0l179.2 179.2c25.6 25.6 38.4 57.6 38.4 89.6S556.8 384 537.6 409.6L467.2 473.6l89.6 89.6 70.4-70.4C672 448 697.6 384 697.6 313.6c0-70.4-25.6-134.4-76.8-179.2l-179.2-179.2C396.8-96 326.4-121.60000000000002 262.4-121.60000000000002zM467.2 204.79999999999995L396.8 268.79999999999995c-102.4 102.4-102.4 262.4 0 364.8l179.2 179.2c102.4 102.4 262.4 102.4 364.8 0 102.4-102.4 102.4-262.4 0-364.8l-134.4-134.4-89.6 89.6 134.4 134.4c51.2 51.2 51.2 128 0 179.2-51.2 51.2-134.4 51.2-179.2 0L486.4 544c-51.2-51.2-51.2-128 0-179.2l70.4-70.4L467.2 204.79999999999995z"  horiz-adv-x="1024" />
      
      <glyph glyph-name="weibo" unicode="&#58922;" d="M929.78325857 407.446775C883.24841957 416.580681 905.91704656 442.068628 905.91704656 442.068628 905.91704656 442.068628 951.42538057 518.445481 896.93513857 574.031823 829.18588656 642.840582 664.77419856 565.3328650000001 664.77419856 565.3328650000001 601.90084057 545.499241 618.58152556 574.379782 627.47789257 623.441906 627.47789257 681.376967 607.97432456 779.327236 440.65420557 721.392175 273.50517256 663.283134 130.05126857 459.466545 130.05126857 459.466545 30.22377557 324.023765 43.48278257 219.37529800000004 43.48278257 219.37529800000004 68.46104158-11.66903000000002 309.86051556-75.171425 497.62516558-90.22062500000004 695.22714457-105.965735 961.86150356-20.889922999999953 1042.69867656 153.78515500000003 1123.53585056 328.72120299999995 976.57472356 397.96491 929.78325857 407.446775L929.78325857 407.446775ZM512.25284456-25.06542300000001C316.10508057-34.28632300000004 157.59578657 65.66470600000002 157.59578657 198.75876600000004 157.59578657 331.93981799999995 316.19062157 438.763024 512.25284456 447.983919 708.40060856 457.204815 867.33761557 374.91267100000005 867.33761557 242.07958199999996 867.33761557 109.07250799999997 708.40060856-15.844529999999963 512.25284456-25.06542300000001L512.25284456-25.06542300000001ZM473.07461757 360.29842099999996C275.81480657 336.811234 298.56897357 148.91373899999996 298.56897357 148.91373899999996 298.56897357 148.91373899999996 296.51596556 89.41286100000002 351.43391857 59.140489 466.83005256-4.361905999999976 585.64786456 34.087489000000005 645.69833957 112.90005299999996 705.91989256 191.79960300000005 670.59105156 383.611629 473.07461757 360.29842099999996L473.07461757 360.29842099999996ZM423.28918356 96.63299900000004C386.50613056 92.19653000000005 356.82306357 113.85693800000001 356.82306357 145.173186 356.82306357 176.48943399999996 383.16999357 209.02353700000003 420.03858757 212.93806800000004 462.29632756 217.02658199999996 489.84084556 192.32154100000002 489.84084556 160.91830200000004 489.84084556 129.68903899999998 459.98669356 100.89549099999999 423.28918356 96.63299900000004L423.28918356 96.63299900000004ZM1025.84690257 488.782034C1041.75771256 488.782034 1055.27334856 500.699606 1057.49743856 516.3577310000001 1057.83960557 517.488595 1058.01068957 518.532471 1058.01068957 519.837314 1082.04798956 740.094935 880.51107857 702.167478 880.51107857 702.167478 862.63280456 702.167478 848.26175057 687.466238 848.26175057 669.111436 848.26175057 651.017604 862.63280456 636.316364 880.51107857 636.316364 1025.24811057 668.850468 993.34094957 521.577106 993.34094957 521.577106 993.34094957 503.309294 1007.88309158 488.782034 1025.84690257 488.782034L1025.84690257 488.782034ZM1002.40839956 873.188995C932.69168857 889.804005 861.09304757 875.450724 840.90514057 871.536193 839.36538457 871.449203 837.91116957 869.883391 836.45695457 869.622422 835.77262156 869.448443 835.34491256 868.752526 835.34491256 868.752526 815.49917257 863.098204 801.04257757 844.395444 801.04257757 822.387079 801.04257757 796.116226 822.00036056 774.542809 848.09066757 774.542809 848.09066757 774.542809 873.49663558 778.022392 890.69057156 784.80758 907.71342857 791.853736 1052.10829358 790.026955 1123.87801756 667.545624 1162.97070556 578.207324 1140.98641157 518.358491 1138.33461257 508.789637 1138.33461257 508.789637 1129.01053756 485.563419 1129.01053756 462.685159 1129.01053756 436.327316 1149.96831956 419.712306 1175.88754356 419.712306 1197.61520657 419.712306 1215.75010657 422.669951 1221.05370956 459.988482L1221.39587656 459.988482C1298.29812057 721.044216 1127.12861456 843.612537 1002.40839956 873.188995L1002.40839956 873.188995Z"  horiz-adv-x="1294" />
      
      <glyph glyph-name="qq" unicode="&#58898;" d="M75.889588 309.414221c-36.97785-87.05781-42.980962-170.112442-13.295048-185.627925 20.47563-10.68984 52.573815 13.651155 82.61694 58.332173 11.897077-48.683093 41.336033-92.761043 83.385383-128.121525-44.10441-16.28172-72.913837-42.871815-72.913838-73.02078 0-49.561785 77.956672-89.635455 174.170745-89.635455 86.78439 0 158.657467 32.565645 171.92385 75.379027 3.56328 0.054023 17.268458 0.054023 20.72259 0 13.321507-42.75936 85.24971-75.379028 171.977872-75.379027 96.211867 0 174.170745 40.128795 174.170746 89.635455 0 30.094942-28.780763 56.73906-72.913838 73.02078 41.993122 35.415607 71.540122 79.438433 83.383178 128.121525 30.044228-44.681018 62.059725-69.022013 82.562917-58.332173 29.712375 15.515482 23.848177 98.62524-13.26528 185.627925-29.056387 68.418945-68.476275 118.798785-98.626342 129.92742 0.438795 4.331722 0.65709 8.773695 0.657089 13.158338 0 26.42472-7.343752 50.875965-19.899022 70.77609 0.219397 1.535783 0.219397 3.124485 0.219397 4.660267 0 12.169395-2.90619 23.572553-7.843185 33.44103-7.617172 177.843172-123.402825 319.065705-310.757264 319.065705-187.46469 0-303.304365-141.222532-310.842158-319.065705-4.988813-9.923602-7.866338-21.325657-7.866337-33.44103 0-1.535783 0.109147-3.125587 0.165375-4.660267-12.44502-19.900125-19.790978-44.296245-19.790978-70.77609 0-4.385745 0.165375-8.770388 0.549045-13.158338-29.933978-11.128635-69.48837-61.564703-98.489632-129.92742z"  horiz-adv-x="1024" />
      
      <glyph glyph-name="timeline" unicode="&#59410;" d="M682.569099 868.431907A495.852019 495.852019 0 0 1 511.996004 895.943697a440.668488 440.668488 0 0 1-170.573094-31.510596l341.24216-347.192385zM875.951386 742.965351a462.453986 462.453986 0 0 1-148.147787 96.867092l-2.495255-476.881681 255.923623 242.455642a493.196812 493.196812 0 0 1-105.280581 137.558947zM991.724835 559.3081609999999l-351.894981-336.635535h355.957769a477.393528 477.393528 0 0 1 27.895675 168.365753 426.336765 426.336765 0 0 1-31.958463 168.269782zM736.568983-71.863473a513.382787 513.382787 0 0 1 143.573153 98.050738 428.000269 428.000269 0 0 1 101.05784 138.038804l-497.643484 2.367293zM341.518881-100.43094799999994a495.852019 495.852019 0 0 1 170.573095-27.511789 440.09266 440.09266 0 0 1 170.573094 31.510596L341.42291 250.76024399999994zM162.340355 25.16357000000005A462.390005 462.390005 0 0 1 310.488142-71.70352100000002l2.495255 476.881681-255.923623-242.455643a498.251303 498.251303 0 0 1 105.280581-137.558947zM28.108415 559.3081609999999A477.009642 477.009642 0 0 1 0.180749 391.006389a425.121128 425.121128 0 0 1 31.990453-168.301772l351.894981 336.507573H28.108415zM301.690767 839.832443a513.478759 513.478759 0 0 1-143.573152-98.018748 428.06425 428.06425 0 0 1-101.089831-138.038804l497.643484-2.367294z"  horiz-adv-x="1024" />
      
      <glyph glyph-name="fenxiao" unicode="&#58886;" d="M652.332909 195.773234A345.435471 345.435471 0 0 0 353.579463 23.991443C162.733204 23.991443 8 178.724647 8 369.570905S162.733204 715.150368 353.579463 715.150368c112.313326 0 212.099395-53.564817 275.225243-136.561484l132.702514 96.186283a172.789732 172.789732 0 1 0 41.123956-76.89143l-130.341054-94.487184c17.307771-41.181553 26.868803-86.394866 26.868803-133.825648 0-31.706916-4.262147-62.434689-12.26807-91.607356l131.464187-99.2677a174.287243 174.287243 0 0 0 111.161394 39.684042c95.466326 0 172.789732-75.739499 172.789731-169.189946S1025.01156-120 929.545234-120c-95.40873 0-172.789732 75.739499-172.789731 169.189945 0 20.936356 3.916567 40.979964 11.000946 59.468466l-115.394743 87.114823zM353.579463 110.386308a259.184597 259.184597 0 1 1 0 518.369195 259.184597 259.184597 0 0 1 0-518.369195z m28.798288 86.394866h-57.596577v57.596577H238.386308v57.596578h86.394866v28.798288H238.386308v57.596578h57.596578l-57.596578 143.991442h57.596578l57.596577-143.991442 57.596577 143.991442h57.596577l-57.596577-143.991442h57.596577v-57.596578h-86.394866v-28.798288h86.394866v-57.596578h-86.394866v-57.596577zM929.545234 628.755503a86.394866 86.394866 0 1 1 0 172.789731 86.394866 86.394866 0 0 1 0-172.789731z m0-496.770478c-48.093142 0-86.394866-37.466573-86.394866-82.79508C843.150368 3.890237 881.423294-33.605134 929.545234-33.605134c48.093142 0 86.394866 37.495371 86.394866 82.795079 0 45.328506-38.301724 82.795079-86.394866 82.79508z"  horiz-adv-x="1111" />
      
      <glyph glyph-name="delete" unicode="&#58984;" d="M947.146105 620.840421h-870.4c-24.252632 0-43.115789 18.863158-43.115789 43.11579s18.863158 43.115789 40.421052 43.115789h873.094737c21.557895 0 40.421053-18.863158 40.421053-43.115789s-16.168421-43.115789-40.421053-43.11579zM804.325053 626.229895v-568.589474c0-53.894737-43.115789-99.705263-97.010527-99.705263h-390.736842c-53.894737 0-97.010526 43.115789-97.010526 99.705263v568.589474h-83.536842v-584.757895c0-91.621053 75.452632-167.073684 167.073684-167.073684h417.684211c91.621053 0 167.073684 75.452632 167.073684 167.073684v584.757895h-83.536842zM365.082947 98.061474c-21.557895 0-40.421053 18.863158-40.421052 43.115789v291.031579c0 24.252632 18.863158 43.115789 40.421052 43.11579s40.421053-18.863158 40.421053-43.11579v-293.726316c2.694737-24.252632-16.168421-40.421053-40.421053-40.421052z m145.51579 0c-21.557895 0-40.421053 18.863158-40.421053 43.115789v291.031579c0 24.252632 18.863158 43.115789 40.421053 43.11579s40.421053-18.863158 40.421052-43.11579v-293.726316c2.694737-24.252632-16.168421-40.421053-40.421052-40.421052z m145.515789 0c-21.557895 0-40.421053 18.863158-40.421052 43.115789v291.031579c0 24.252632 18.863158 43.115789 40.421052 43.11579s40.421053-18.863158 40.421053-43.11579v-293.726316c0-24.252632-18.863158-40.421053-40.421053-40.421052z m-242.526315 603.621052c0 59.284211 48.505263 107.789474 105.094736 107.789474s105.094737-48.505263 105.094737-107.789474h83.536842c0 105.094737-83.536842 191.326316-188.631579 191.326316s-188.631579-86.231579-188.631579-191.326316h83.536843z"  horiz-adv-x="1024" />
      
      <glyph glyph-name="edit" unicode="&#59384;" d="M994.742857 830.171429c14.628571-14.628571 14.628571-43.885714 0-58.514286L460.8 237.71428600000002c-14.628571-14.628571-43.885714-14.628571-58.514286 0-14.628571 14.628571-14.628571 43.885714 0 58.514285L936.228571 830.171429c14.628571 21.942857 43.885714 21.942857 58.514286 0zM855.771429-120.68571399999996H190.171429c-87.771429 0-160.914286 73.142857-160.914286 160.914285V705.828571C29.257143 793.6 102.4 866.742857 190.171429 866.742857h299.885714c21.942857 0 43.885714-21.942857 43.885714-43.885714s-14.628571-36.571429-36.571428-36.571429H190.171429c-43.885714 0-73.142857-36.571429-73.142858-73.142857v-665.6c0-43.885714 36.571429-73.142857 73.142858-73.142857h665.6c43.885714 0 73.142857 36.571429 73.142857 73.142857V347.42857100000003c0 21.942857 21.942857 43.885714 43.885714 43.885715s51.2-21.942857 51.2-43.885715v-299.885714c0-95.085714-80.457143-168.228571-168.228571-168.228571z"  horiz-adv-x="1024" />
      
      <glyph glyph-name="daifukuan" unicode="&#58972;" d="M717.44 388.32m-54.24 0a54.24 54.24 0 1 1 108.48 0 54.24 54.24 0 1 1-108.48 0ZM864.8 784.8h-705.12c-70.08 0-127.68-57.12-127.68-127.68v-546.24c0-70.08 57.12-127.68 127.68-127.68h705.12C934.88-16.799999999999955 992.48 40.32000000000005 992.48 110.88V657.12c0 70.56-57.12 127.68-127.68 127.68z m60.48-467.04h-290.4c-14.88 0-26.88 12-26.88 26.88v87.84c0 14.88 12 26.88 26.88 26.88H925.28v-141.6z m-60.48-267.36h-705.12c-33.12 0-60.48 27.36-60.48 60.48V657.12c0 33.12 27.36 60.48 60.48 60.48h705.12c33.12 0 60.48-27.36 60.48-60.48v-131.04h-290.4c-51.84 0-94.08-42.24-94.08-94.08v-87.84c0-51.84 42.24-94.08 94.08-94.08H925.28v-139.68c0-32.64-26.88-60-60.48-60z"  horiz-adv-x="1024" />
      
      <glyph glyph-name="qpdingdan" unicode="&#58983;" d="M304.72727281 253.09090875000004a32.72727281 32.72727281 0 0 1 0-65.45454469h305.45454563a32.72727281 32.72727281 0 1 1 0 65.45454469h-305.45454563z m545.45454563-65.45454469a32.72727281 32.72727281 0 0 1 32.72727281 32.72727188V620.50909125a65.45454562 65.45454562 0 0 1-17.0181825 44.02909031l-138.04363594 156.2181825A65.41090875 65.41090875 0 0 1 679.41090875 842.18181844H206.54545438a65.45454562 65.45454562 0 0 1-65.45454563-65.45454563v-785.45454562a65.45454562 65.45454562 0 0 1 65.45454562-65.45454563h610.90909125a65.45454562 65.45454562 0 0 1 65.45454563 65.45454563v76.36363687a32.72727281 32.72727281 0 1 1-65.45454563 0V-8.727272810000045H206.54545438V776.72727281h472.86545437L817.45454562 620.50909125V220.36363594a32.72727281 32.72727281 0 0 1 32.72727282-32.72727188zM708.36363594 373.09090875000004a32.72727281 32.72727281 0 0 1-32.72727188 32.72727281h-370.90909125a32.72727281 32.72727281 0 0 1 0-65.45454562h370.90909125a32.72727281 32.72727281 0 0 1 32.72727188 32.72727281zM304.72727281 493.09090875h327.27272719a32.72727281 32.72727281 0 1 1 0 65.45454562h-327.27272719a32.72727281 32.72727281 0 0 1 0-65.45454562z"  horiz-adv-x="1024" />
      
      <glyph glyph-name="daifahuo" unicode="&#58892;" d="M32.360448 412.95872c15.992832 0 28.94848 12.890112 28.94848 28.798976V654.006272c0 43.053056 35.196928 78.077952 78.467072 78.077952h383.875072c43.270144 0 78.467072-35.024896 78.467072-78.077952v-503.857152H389.132288c-20.115456 47.048704-67.03104 80.095232-121.565184 80.095232-54.530048 0-101.44768-33.048576-121.585664-80.095232h-6.20544c-43.270144 0-78.467072 35.024896-78.467072 78.10048v40.79616c0 15.88224-12.955648 28.772352-28.94848 28.772352-15.970304 0-28.903424-12.890112-28.903424-28.772352v-40.798208c0-73.43104 58.935296-133.412864 132.196352-135.583744 3.254272-69.61152 61.17376-125.229056 131.915776-125.229056 70.721536 0 128.616448 55.595008 131.915776 125.16352h284.557312c3.299328-69.568512 61.196288-125.16352 131.8912-125.16352 70.723584 0 128.618496 55.595008 131.917824 125.16352h78.12096V369.430528c0 36.175872-12.478464 71.696384-35.15392 99.9936l-102.967296 128.466944c-22.462464 28.035072-56.010752 44.09344-92.030976 44.09344h-135.84384v12.02176c0 74.821632-61.149184 135.647232-136.321024 135.647232H139.776c-75.169792 0-136.321024-60.827648-136.321024-135.647232v-212.248576c0.002048-15.908864 12.93312-28.798976 28.905472-28.798976z m783.568896-387.954688c-40.902656 0-74.192896 33.13664-74.192896 73.824256 0 40.730624 33.29024 73.865216 74.192896 73.865216 40.925184 0 74.213376-33.13664 74.213376-73.865216 0.002048-40.687616-33.286144-73.824256-74.213376-73.824256z m-121.561088 125.14304h-34.39616V584.435712h135.84384c18.311168 0 35.391488-8.20224 46.804992-22.437888l102.967296-128.487424a102.742016 102.742016 0 0 0 22.525952-64.08192v-219.281408h-30.59712c-20.135936 47.048704-67.053568 80.095232-121.587712 80.095232-54.532096 0.002048-101.44768-33.046528-121.561088-80.095232z m-426.801152 22.525952c40.906752 0 74.194944-33.11616 74.194944-73.846784 0-40.708096-33.288192-73.824256-74.194944-73.824256-40.925184 0-74.213376 33.11616-74.213376 73.824256 0 40.732672 33.308672 73.846784 74.213376 73.846784z m465.360896 396.724224c-15.972352 0-28.925952-12.890112-28.925952-28.796928v-168.937472h169.783296c15.992832 0 28.946432 12.890112 28.946432 28.776448 0 15.906816-12.9536 28.796928-28.946432 28.796928h-111.931392v111.364096c0 15.906816-12.955648 28.796928-28.925952 28.796928z"  horiz-adv-x="1025" />
      
      <glyph glyph-name="daishouhuo" unicode="&#59249;" d="M92.67826045 574.05652177l0.31304356 0.86086935 77.32173954 184.10869599A109.56521778 109.56521778 0 0 0 271.30869599 826.17391289h520.51304356a109.56521778 109.56521778 0 0 0 100.99565157-67.14782578l77.32173955-184.10869599 0.54782578-1.33043468c1.95652177-4.06956533 3.05217422-8.64782578 3.05217422-13.49999999v-465.65217423a148.69565244 148.69565244 0 0 0-148.69565244-148.69565156h-586.95652179a148.69565244 148.69565244 0 0 0-148.69565243 148.69565156v92.93478311a31.89130401 31.89130401 0 0 0 0 1.76086934v189.9V560.08695644c0 5.00869599 1.17391289 9.78260888 3.28695644 13.96956534zM152 528.78260888v-339.65217421a31.89130401 31.89130401 0 0 0 0-1.76086934V94.43478221999999a86.08695645 86.08695645 0 0 1 86.08695645-86.08695644h586.95652177a86.08695645 86.08695645 0 0 1 86.08695645 86.08695645V528.78260888H152z m743.32173955 62.60869513l-60.22173955 143.41304355a46.95652177 46.95652177 0 0 1-43.27826045 28.76087022H271.30869599a46.95652177 46.95652177 0 0 1-43.27826132-28.76087022L167.76956533 591.39130401h727.55217422zM358.72608711 278.85652177a31.30434756 31.30434756 0 1 1-45.62608711-42.84782578l100.09565244-106.70869599a39.13043467 39.13043467 0 0 1 54.31304355-2.66086933l280.33043468 245.4260871a31.30434756 31.30434756 0 0 1-41.24347823 47.11304268l-263.26956533-230.47826045-84.6 90.15652178z"  horiz-adv-x="1068" />
      
      <glyph glyph-name="jifen" unicode="&#58920;" d="M417.5337563 307.35794973c0-60.40711965 47.05498453-83.93170147 100.46702023-83.93170148 34.97309525 0 88.3862949 10.17593856 88.3862949 56.59172522 0 48.95860736-68.04256768 57.2285952-134.80324551 75.03183076-67.39871175 17.80323555-135.4389504 43.87412992-135.4389504 129.08073529 0 92.83390123 87.74942493 137.34606621 169.77517568 137.34606621 94.74567395 0 181.8570661-41.33247431 181.8570661-146.24710202l-96.65046073 0c-3.17852558 54.6799525-41.96934429 68.67361565-89.65537678 68.67361565-31.79224064 0-68.67710749-13.35446414-68.67710749-51.50841287 0-34.96727325 21.62445198-39.41953763 135.44011435-68.67128662 33.06714339-8.26416583 134.80208157-29.24592697 134.80208156-132.25576789 0-83.30065351-65.49392498-145.61488896-188.85331512-145.61488896-100.46003427 0-194.56883939 49.59547619-193.29975752 161.50635293L417.5337563 307.35911367000006 417.5337563 307.35794973zM545.35356075 583.5718144c0-7.69948331-6.24295026-13.93544761-13.93544761-13.93544761l-34.85084331 0c-7.69948331 0-13.93777664 6.2359643-13.93777664 13.93544761l0 72.02329145c0 7.6936613 6.23712825 13.93661155 13.93777664 13.93661156l34.85084331 0c7.69249735 0 13.93544761-6.24178631 13.93544761-13.93661156L545.35356075 583.5718144 545.35356075 583.5718144zM545.35356075 113.11627719c0-7.6936613-6.24295026-13.93544761-13.93544761-13.93544761l-34.85084331 0c-7.69948331 0-13.93777664 6.24178631-13.93777664 13.93544761l0 72.02329145c0 7.69831936 6.23712825 13.93544761 13.93777664 13.93544761l34.85084331 0c7.69249735 0 13.93544761-6.23712825 13.93544761-13.93544761L545.35356075 113.11627719 545.35356075 113.11627719zM511.95226339 891.23678208c-280.32382635 0-507.57326393-227.24943645-507.57326392-507.57326393 0-280.3308123 227.24943645-507.5790848 507.57326392-507.5790848 280.32848441 0 507.57792085 227.2482725 507.57792086 507.5790848C1019.53134933 663.9873456299999 792.28191175 891.23678208 511.95226339 891.23678208L511.95226339 891.23678208zM512.81617123-43.22176909999996c-235.88967083 0-427.11232512 191.22381938-427.11232512 427.1134902s191.22265543 427.11349021 427.11232512 427.11349021c235.89083477 0 427.11349021-191.22381938 427.11349021-427.11349021S748.70700601-43.22176909999996 512.81617123-43.22176909999996L512.81617123-43.22176909999996zM511.39805981-30.45993131"  horiz-adv-x="1024" />
      
      <glyph glyph-name="shouhou" unicode="&#59272;" d="M526.87289032 591.54651812c-7.14472897 10.59801478-18.9335324 17.02827174-31.67496716 17.02827075-7.14472897 0-14.40853809-2.26249719-20.36247838-6.07301947-8.69275411-5.2394683-14.76577359-13.93222242-17.02827174-23.8157642-2.26249719-9.76446361 0-20.3624784 5.71578395-28.69799701l109.55251672-165.75772204h-77.75847138c-20.71971488 0-37.74798664-17.02827174-37.74798662-37.74798663s17.02827174-37.74798664 37.74798662-37.74798663h99.66897494v-66.44598361h-51.68020906c-20.71971488 0-37.74798664-17.02827174-37.74798663-37.74798661S522.58605332 166.79235504999997 543.30576821 166.79235504999997h51.68020906v-76.3295254c0-20.71971488 17.02827174-37.74798664 37.7479866-37.74798662s37.74798664 17.02827174 37.74798761 37.74798662v77.75847139h50.25126306c20.71971488 0 37.74798664 17.02827174 37.74798663 37.7479876s-17.02827174 37.74798664-37.74798663 37.74798663h-50.60849956v65.73151063h99.66897495c13.57498593 0 26.07826235 7.14472897 32.86575481 18.9335324 6.78749247 11.66972427 6.78749247 26.07826235 0 37.74798761s-19.29076889 18.9335324-32.86575481 18.93353238h-106.93278305L526.87289032 591.54651812zM680.60365159 435.19602318c5.71578396-3.45328581 12.14603994-5.71578396 19.29076891-5.71578398l0.35723649-0.35723648h1.19078866c12.86051294 0 24.5302372 6.43025597 31.31772966 17.02827174l69.54203295 103.83673373c5.2394683 8.33551762 7.50196547 18.45721774 5.23946829 28.34076051-1.90526166 9.76446361-7.97828113 18.09998124-16.19471957 23.8157642-6.07302045 3.81052231-13.21774943 6.07302045-20.36247939 6.07302044-12.86051294 0-24.5302372-6.43025597-31.67496617-17.02827173l-69.54203292-103.83673472c-5.2394683-8.33551762-7.50196547-18.45721774-5.23946832-28.34075951 1.66710332-9.88354275 7.74012379-18.5762969 16.07564141-23.8157642zM138.79500634 99.75097760000006c0-122.41303063 99.31173845-221.72476908 221.72476807-220.89121692H892.92119254c121.93671498 0 221.2484534 99.31173845 221.24845342 221.36753258V573.0893003799999C1114.28872513 695.02601536 1014.85790753 794.33775381 892.92119254 794.33775381H598.3201849c-21.19603056 0-38.10522311-17.02827174-38.10522412-38.10522412 0-21.19603056 17.02827174-38.10522311 38.10522411-38.10522311H892.92119254c80.02096954 0 145.39524267-65.37427413 145.39524369-145.39524267v-472.98108631c0-80.02096954-65.37427413-145.39524267-145.39524369-145.39524268H360.40069625c-80.02096954 0-145.39524267 65.37427413-145.39524368 145.39524268V572.7320639100001C215.00545257 650.49053529 276.5692044 713.95954776 353.25596629 717.77007007L300.38496858 641.44054467c-12.14603994-17.02827174-7.97828113-40.84403593 9.40722714-52.87099769 17.02827174-12.02696078 40.84403593-7.97828113 52.87099768 9.4072271L457.09270003 733.60755317l0.35723652 0.35723647c0 0.35723649 0.35723649 0.35723649 0.35723649 0.71447301 0.35723649 0.35723649 0.35723649 0.714473 0.71447299 1.19078866 1.19078865 1.54802517 1.90526166 2.97697015 2.61973464 4.88223179 0 0.35723649 0.35723649 0.714473 0.35723552 1.0717095 1.90526166 4.52499532 2.97697015 9.40722711 2.97697114 14.40853709 0 4.8822318-1.0717095 9.76446361-2.97697114 14.28945891-0.35723649 0.35723649-0.35723649 0.714473-0.35723552 0.714473-0.714473 1.90526166-1.90526166 3.81052231-2.97697112 5.71578397-0.35723649 0.35723649-0.35723649 0.714473-0.71447301 1.19078766-1.19078865 1.90526166-2.61973365 3.45328581-4.1677588 4.88223182 0 0.35723649-0.35723649 0.35723649-0.714473 0.71447299-1.54802517 1.0717095-2.26249719 2.26249719-3.81052232 3.4532858L319.67573849 881.97976698c-17.02827174 12.02696078-40.72495777 8.69275411-53.22823419-8.33551763-12.02696078-17.02827174-8.69275411-40.84403593 8.33551761-53.22823319L316.57968916 789.81275849C215.36268909 769.45027913 138.79500634 679.90300429 138.79500634 572.7320639100001v-472.98108631z"  horiz-adv-x="1310" />
      
      <glyph glyph-name="shouhuodizhi" unicode="&#59006;" d="M581.888 682.24c0 39.424-31.872 71.424-71.168 71.424s-71.168-32-71.168-71.424c0-39.552 31.872-71.424 71.168-71.424 39.168-0.128 71.168 31.872 71.168 71.424zM510.592 183.424S771.84 442.496 771.84 669.184 510.592 895.872 510.592 895.872 249.344 895.872 249.344 669.184s261.248-485.76 261.248-485.76zM327.68 700.288c1.664 7.552 4.608 14.72 7.424 21.888 1.024 2.56 1.536 5.12 2.688 7.552 3.072 6.528 7.04 12.672 11.008 18.816 1.92 3.072 3.584 6.272 5.76 9.216 3.2 4.224 7.04 7.936 10.624 11.904 4.096 4.608 8.064 9.216 12.672 13.312 1.92 1.792 4.352 3.2 6.4 4.864 6.912 5.632 14.08 11.008 22.016 15.744 0.256 0.128 0.512 0.256 0.896 0.384 19.2 11.264 41.088 19.584 65.536 23.936 12.16 2.176 24.832 3.328 37.888 3.328h0.256c13.184 0 25.984-1.28 38.4-3.584 6.784-1.152 12.928-3.328 19.2-5.248 5.504-1.536 11.136-2.688 16.384-4.608 5.376-2.048 10.112-4.736 15.104-7.168 6.016-2.816 12.032-5.504 17.664-8.96 2.432-1.536 4.608-3.456 7.04-4.992 35.2-23.808 60.672-57.856 69.248-97.28 2.304-9.984 3.584-20.096 3.584-30.208 0-161.92-186.624-388.608-186.624-388.608S324.096 507.264 324.096 669.184c0 10.496 1.152 20.864 3.584 31.104zM985.728 420.864c-3.968 19.84-118.784-7.936-166.272-23.808 0 0-21.888-63.488 0-71.296 26.752-9.472 94.976 23.808 94.976 23.808v-308.736s-241.408-98.944-261.248-94.976c-19.84 3.968-261.248 106.88-285.056 94.976-23.808-11.904-261.248-71.296-261.248-71.296V278.4s109.952 26.88 118.784 47.488c10.624 24.96 7.936 83.2-71.296 47.488C75.264 337.792 35.584 302.08 35.584 302.08v-380.032s23.808-63.36 71.296-47.488c47.488 15.872 261.248 94.976 261.248 94.976s253.312-91.008 285.056-94.976c31.616-3.968 331.52 87.808 332.544 118.784 3.2 104.32 3.84 407.808 0 427.52z"  horiz-adv-x="1024" />
      
      <glyph glyph-name="kefu" unicode="&#58964;" d="M487.775152 860.277388C224.170237 860.277388 10.822843 672.263641 10.822843 440.355915c0-142.28784 81.544937-268.787345 204.669836-346.065816v-130.066946c0-17.54795 12.124476-28.08154 26.008569-28.08154 5.206535 0 10.437173 1.735512 13.859987 3.519232l130.066946 87.86027c32.974719-7.014359 65.901229-8.773975 100.611459-8.773975 263.629019 0 476.928205 187.989643 476.928205 419.897368 1.78372 233.619133-211.53957 421.63288-475.192693 421.63288z m0-771.290241c-29.479591 0-58.959183 3.519232-88.438774 8.79808l-13.884092 3.495127c-8.653453 1.759616-17.331011 0-26.008569-5.278847l-12.124476-8.749871-62.45431-42.182571V113.57356100000004c0 12.293207-6.942046 24.610517-17.331011 29.841156l-17.379219 10.557695c-107.529401 65.033473-171.695118 172.201309-171.695118 284.647992 0 193.26849 182.132291 349.609152 407.580057 349.609152 225.47187 0 407.531849-156.340662 407.531849-349.609152 1.807824-191.508874-182.01177-349.633256-405.796337-349.633257zM217.228191 428.062709c0-32.03465 25.622899-57.970905 57.247775-57.970905s57.223671 25.936255 57.223671 57.970905c0 31.986441-25.622899 57.970905-57.223671 57.970905-31.648981 0-57.247776-25.984464-57.247775-57.970905z m216.818417 0c0-32.03465 25.622899-57.970905 57.223671-57.970905 31.600772 0 57.247776 25.936255 57.247776 57.970905 0 31.986441-25.647003 57.970905-57.247776 57.970905-31.624876 0-57.223671-25.984464-57.223671-57.970905z m209.828162 0c0-32.03465 25.622899-57.970905 57.223672-57.970905 31.648981 0 57.27188 25.936255 57.27188 57.970905 0 31.986441-25.622899 57.970905-57.27188 57.970905-31.600772 0-57.223671-25.984464-57.223672-57.970905z m328.517867-90.800998c-1.036486 1.349842-2.097076 2.579163-3.157667 3.880796a405.024999 405.024999 0 0 0-31.528459-82.605527c0.530295-1.277529 1.229321-2.482746 1.78372-3.73617 9.063227-21.163599 14.004614-43.990396 14.004614-67.805471 0-63.201544-36.035968-123.414152-96.465515-159.956311l-9.714044-5.90556c-5.857351-2.916624-9.762252-9.834565-9.762252-16.776611V-34.11364800000001l-35.047691 23.694553-6.869733 4.917282c-4.84497 2.916624-9.689939 3.929005-14.559013 2.916624l-7.785697-1.928346c-16.583777-3.037145-33.143449-4.917283-49.703122-4.917283-39.699826 0-77.109741 8.894496-109.771103 24.417683a549.04835 549.04835 0 0 0-100.635563-14.14924c54.258839-47.365002 128.909938-76.651758 211.370839-76.651758 21.83852 0 42.592345 1.108799 63.297962 5.495786l81.882397-55.27122c2.169389-1.108799 5.447578-2.193494 8.653453-2.193494 8.749871 0 16.415046 6.604585 16.415047 17.668471v81.858293c77.49541 48.666635 128.813521 128.259122 128.813521 217.78259 0 54.76503-18.849583 105.601055-51.221694 147.735418z"  horiz-adv-x="1035" />
      
      <glyph glyph-name="lingquan" unicode="&#58891;" d="M901.387 676.998h-34.282c17.364 29.517 25.022 57.655 22.573 83.745-2.004 21.816-12.377 53.114-50.31 78.002-31.432 20.703-71.902 25.778-116.78 14.514-72.749-18.254-158.898-81.074-215.485-156.984C450.426 772.23 364.366 835.005 291.617 853.26c-44.967 11.309-85.392 6.189-116.87-14.514-37.887-24.932-48.26-56.142-50.309-78.002-2.404-26.09 5.165-54.228 22.617-83.7h-34.281a94.386 94.386 0 0 1-94.253-94.387v-121.455c0-41.138 27.158-77.468 66.382-89.667a93.273 93.273 0 0 1-5.699-31.789v-364.41c0-51.957 42.34-94.297 94.297-94.297h667.292a94.386 94.386 0 0 1 94.164 94.341V339.78999999999996c0 10.864-1.915 21.55-5.61 31.834a94.342 94.342 0 0 1 66.248 89.622V582.701a94.386 94.386 0 0 1-94.252 94.297zM840.75-51.73400000000004H540.627V366.948h300.166a27.158 27.158 0 0 0 27.07-27.158v-364.41a27.158 27.158 0 0 0-27.114-27.159zM577.625 676.953c47.683 55.073 110.37 98.349 161.213 111.126 26.446 6.59 48.084 4.809 63.71-5.52 16.652-10.953 19.59-20.658 20.258-28.05 2.672-26.98-26.268-63.354-39.936-77.556H577.625z m350.831-94.297v-121.455c0-14.96-12.11-27.114-27.069-27.114h-360.76V609.8140000000001h360.76c14.96 0 27.07-12.154 27.07-27.158zM473.49 366.904V-51.77999999999997H173.5a27.158 27.158 0 0 0-27.158 27.114v364.41a27.158 27.158 0 0 0 27.158 27.159H473.49z m-282.135 387.65c0.668 7.391 3.651 17.097 20.213 28.05 15.583 10.328 37.176 12.198 63.755 5.52 50.577-12.689 113.175-55.964 160.991-111.171H231.246c-12.244 12.422-42.563 49.953-39.892 77.557zM85.615 582.701a27.158 27.158 0 0 0 27.159 27.158h360.715V434.13H112.774a27.158 27.158 0 0 0-27.159 27.159V582.656z"  horiz-adv-x="1024" />
      
      <glyph glyph-name="bangzhu" unicode="&#58938;" d="M512-128c-281.6 0-512 230.4-512 512s230.4 512 512 512 512-230.4 512-512-230.4-512-512-512z m0 70.4A442.453333 442.453333 0 0 1 953.6 384 442.453333 442.453333 0 0 1 512 825.6 442.453333 442.453333 0 0 1 70.4 384 442.453333 442.453333 0 0 1 512-57.60000000000002zM518.4 640c44.8 0 83.2-12.8 108.8-38.4 25.6-25.6 44.8-57.6 44.8-102.4 0-32-6.4-64-25.6-83.2L588.8 358.4c-19.2-6.4-25.6-19.2-32-32-6.4-12.8-12.8-32-12.8-51.2v-12.8h-76.8v12.8c0 25.6 6.4 51.2 12.8 64 6.4 19.2 38.4 51.2 76.8 89.6l19.2 19.2c12.8 19.2 19.2 32 19.2 51.2 0 25.6-6.4 44.8-19.2 57.6-12.8 12.8-38.4 19.2-64 19.2-32 0-51.2-12.8-64-32-12.8-12.8-19.2-38.4-19.2-70.4h-76.8c0 51.2 12.8 89.6 44.8 121.6S467.2 640 518.4 640z m-12.8-409.6c12.8 0 25.6-6.4 38.4-12.8 12.8-6.4 12.8-19.2 12.8-38.4 0-12.8-6.4-25.6-12.8-38.4-12.8-6.4-25.6-12.8-38.4-12.8-12.8 0-25.6 6.4-38.4 12.8-12.8 12.8-12.8 19.2-12.8 38.4 0 12.8 6.4 25.6 12.8 38.4 12.8 6.4 25.6 12.8 38.4 12.8z"  horiz-adv-x="1024" />
      
      <glyph glyph-name="bianji" unicode="&#59044;" d="M821.333333-128H201.955556A202.296889 202.296889 0 0 0 0 74.09777799999995V693.9022219999999A202.296889 202.296889 0 0 0 201.955556 896h309.674666a40.391111 40.391111 0 0 0 0-80.839111H201.955556a121.486222 121.486222 0 0 1-121.173334-121.258667v-619.804444a121.486222 121.486222 0 0 1 121.173334-121.258667h619.377777a121.486222 121.486222 0 0 1 121.173334 121.258667V384a40.391111 40.391111 0 1 0 80.782222 0v-309.902222a202.296889 202.296889 0 0 0-201.955556-202.097778z m33.905778 932.124444l37.973333-38.286222 38.257778-38.001778-185.827555-185.912888-222.151111-222.065778-83.740445-7.793778 7.793778 83.797333 221.895111 222.321778 185.799111 185.912889z m0 91.875556c-14.336 0-28.103111-5.688889-38.229333-15.900444l-204.657778-204.8-235.349333-237.397334a26.965333 26.965333 0 0 1-7.822223-16.440889l-15.075555-167.879111a26.965333 26.965333 0 0 1 26.936889-29.383111h2.417778l167.765333 15.075556a26.908444 26.908444 0 0 1 16.440889 7.822222l235.889778 236.088889 204.657777 204.8a53.902222 53.902222 0 0 1 0 76.231111l-57.912889 58.766222L893.212444 880.071111A53.845333 53.845333 0 0 1 855.239111 896z"  horiz-adv-x="1024" />
      
      <glyph glyph-name="fuwu" unicode="&#59186;" d="M322.643456 430.08c-20.48 20.48-51.2 20.48-71.68 0s-20.48-51.2 0-71.68l215.04-215.04c20.48-20.48 51.2-20.48 71.68 0l471.04 471.04c20.48 20.48 20.48 51.2 0 71.68s-51.2 20.48-71.68 0l-435.2-435.2-179.2 179.2zM967.763456 384c-25.6 0-46.08-20.48-51.2-46.08-20.48-204.8-194.56-363.52-409.6-363.52-250.88 0-450.56 230.4-399.36 491.52 30.72 153.6 148.48 281.6 302.08 317.44 81.92 20.48 163.84 15.36 235.52-10.24 35.84-15.36 71.68 10.24 71.68 46.08 0 20.48-10.24 40.96-30.72 46.08-61.44 20.48-133.12 30.72-204.8 30.72C220.243456 880.64 5.203456 660.48 0.083456 394.24-5.036544 107.52 225.363456-128 512.083456-128c261.12 0 481.28 199.68 506.88 455.68 5.12 30.72-20.48 56.32-51.2 56.32z"  horiz-adv-x="1024" />
      
      <glyph glyph-name="gouwuche" unicode="&#58907;" d="M238.933333 599.04L211.626667 742.4H0V810.666667h266.24L307.2 612.6933329999999zM916.48 93.866667H329.386667l-97.28 546.133333h781.653333l-97.28-546.133333z m-529.066667 68.266666h472.746667l73.386667 409.6H314.026667l73.386666-409.6zM443.733333 452.266667h358.4v-68.266667H443.733333zM375.466667-93.866667c-66.56 0-119.466667 52.906667-119.466667 119.466667s52.906667 119.466667 119.466667 119.466667 119.466667-52.906667 119.466666-119.466667-52.906667-119.466667-119.466666-119.466667z m0 170.666667c-29.013333 0-51.2-22.186667-51.2-51.2s22.186667-51.2 51.2-51.2 51.2 22.186667 51.2 51.2-22.186667 51.2-51.2 51.2zM870.4-93.866667c-66.56 0-119.466667 52.906667-119.466667 119.466667s52.906667 119.466667 119.466667 119.466667 119.466667-52.906667 119.466667-119.466667-52.906667-119.466667-119.466667-119.466667z m0 170.666667c-29.013333 0-51.2-22.186667-51.2-51.2s22.186667-51.2 51.2-51.2 51.2 22.186667 51.2 51.2-22.186667 51.2-51.2 51.2z"  horiz-adv-x="1024" />
      
      <glyph glyph-name="view-tile" unicode="&#59080;" d="M88.746667 807.253333v-300.373333h300.373333V807.253333H88.746667zM68.266667 896h341.333333a68.266667 68.266667 0 0 0 68.266667-68.266667v-341.333333a68.266667 68.266667 0 0 0-68.266667-68.266667H68.266667a68.266667 68.266667 0 0 0-68.266667 68.266667V827.733333a68.266667 68.266667 0 0 0 68.266667 68.266667z m20.48-634.88v-300.373333h300.373333V261.12H88.746667zM68.266667 349.866667h341.333333a68.266667 68.266667 0 0 0 68.266667-68.266667v-341.333333a68.266667 68.266667 0 0 0-68.266667-68.266667H68.266667a68.266667 68.266667 0 0 0-68.266667 68.266667V281.6a68.266667 68.266667 0 0 0 68.266667 68.266667z m566.613333 457.386666v-300.373333h300.373333V807.253333H634.88zM614.4 896h341.333333a68.266667 68.266667 0 0 0 68.266667-68.266667v-341.333333a68.266667 68.266667 0 0 0-68.266667-68.266667H614.4a68.266667 68.266667 0 0 0-68.266667 68.266667V827.733333a68.266667 68.266667 0 0 0 68.266667 68.266667z m20.48-634.88v-300.373333h300.373333V261.12H634.88zM614.4 349.866667h341.333333a68.266667 68.266667 0 0 0 68.266667-68.266667v-341.333333a68.266667 68.266667 0 0 0-68.266667-68.266667H614.4a68.266667 68.266667 0 0 0-68.266667 68.266667V281.6a68.266667 68.266667 0 0 0 68.266667 68.266667z"  horiz-adv-x="1024" />
      
      <glyph glyph-name="view-list" unicode="&#58935;" d="M65.991111 893.724444h318.577778a63.715556 63.715556 0 0 0 63.715555-63.715555v-318.577778a63.715556 63.715556 0 0 0-63.715555-63.715555H65.991111a63.715556 63.715556 0 0 0-63.715555 63.715555V830.008889a63.715556 63.715556 0 0 0 63.715555 63.715555z m31.857778-95.573333v-254.862222h254.862222v254.862222h-254.862222zM65.991111 320.284444h318.577778a63.715556 63.715556 0 0 0 63.715555-63.715555v-318.577778a63.715556 63.715556 0 0 0-63.715555-63.715555H65.991111a63.715556 63.715556 0 0 0-63.715555 63.715555v318.577778a63.715556 63.715556 0 0 0 63.715555 63.715555z m31.857778-95.573333v-254.862222h254.862222v254.862222h-254.862222zM575.715556 830.008889m47.786667 0l286.72 0q47.786667 0 47.786666-47.786666l0 0q0-47.786667-47.786666-47.786667l-286.72 0q-47.786667 0-47.786667 47.786667l0 0q0 47.786667 47.786667 47.786666ZM575.715556 638.862223m47.786667 0l159.288888 0q47.786667 0 47.786666-47.786667l0 0q0-47.786667-47.786666-47.786667l-159.288888 0q-47.786667 0-47.786667 47.786667l0 0q0 47.786667 47.786667 47.786667ZM575.715556 256.568889m47.786667 0l286.72 0q47.786667 0 47.786666-47.786666l0 0q0-47.786667-47.786666-47.786667l-286.72 0q-47.786667 0-47.786667 47.786667l0 0q0 47.786667 47.786667 47.786666ZM575.715556 65.422223m47.786667 0l159.288888 0q47.786667 0 47.786666-47.786667l0 0q0-47.786667-47.786666-47.786667l-159.288888 0q-47.786667 0-47.786667 47.786667l0 0q0 47.786667 47.786667 47.786667Z"  horiz-adv-x="1024" />
      
      <glyph glyph-name="arrow-down" unicode="&#58883;" d="M767.857907 580.072032l-254.893642-254.893642L258.070623 580.072032a63.200552 63.200552 0 0 1-91.500281 0 63.200552 63.200552 0 0 1 0-91.500281l300.643783-300.643783a63.200552 63.200552 0 0 1 91.500281 0l300.643784 300.643783A64.703771 64.703771 0 1 1 767.857907 580.072032z"  horiz-adv-x="1024" />
      
      <glyph glyph-name="arrow-up" unicode="&#58884;" d="M258.877988 190.635077l251.374401 251.3744L761.626789 190.635077a62.327961 62.327961 0 0 1 90.236964 0 62.327961 62.327961 0 0 1 0 90.236963l-296.492883 296.492883a62.327961 62.327961 0 0 1-90.236964 0l-296.492883-296.492883A63.810425 63.810425 0 1 1 258.877988 190.635077z"  horiz-adv-x="1024" />
      
      <glyph glyph-name="cart" unicode="&#59020;" d="M977.706667 126.272H410.922667c-72.736 0-94.528 27.68-109.216 78.592-41.6 144.512-141.856 498.208-165.12 580.16H36.778667c-13.024 0-23.488 10.464-23.488 23.488S23.754667 832 36.778667 832h117.664c10.464 0 19.744-6.944 22.56-17.088 0 0 122.688-433.12 169.952-596.96 9.76-33.856 15.136-44.576 64-44.576h566.784a23.52 23.52 0 1 0 0-47.04z m-64.384 202.272L322.346667 244.16l-6.624 46.592 590.88 84.384c46.24 6.624 47.584 13.76 47.584 55.488V573.248c0 25.952-21.184 47.072-47.072 47.072H342.538667a23.52 23.52 0 1 0 0 47.04h564.576a94.176 94.176 0 0 0 94.08-94.08v-142.624c0-59.36-13.632-91.424-87.936-102.08zM366.090667-61.952a47.072 47.072 0 1 0 0.032 94.208h0.032a47.072 47.072 0 1 0-0.032-94.208h-0.032z m517.536 0a47.072 47.072 0 1 0 0.032 94.208 47.072 47.072 0 1 0-0.032-94.208z"  horiz-adv-x="1024" />
      
      <glyph glyph-name="chaping" unicode="&#59023;" d="M104.608 115.904a20 20 0 0 1 0.096-40h0.16c0.32 0 25.888-0.128 61.952-12.192 48.16-16.128 91.296-44.8 128.16-85.184a19.904 19.904 0 0 1 28.288-1.312 20.032 20.032 0 0 1 1.28 28.288C224 115.68 109.472 115.936 104.576 115.936z m784.352-1.568c-8.256 0.544-145.12 8-253.888-108.704a20.032 20.032 0 0 1 29.248-27.296 298.176 298.176 0 0 0 145.76 87.104l2.048 0.448c42.592 10.688 72.832 8.64 74.112 8.544l1.088-0.032a20 20 0 0 1 1.696 39.936h-0.064z m50.144 243.904c-27.648 67.52-89.344 129.312-138.08 174.624 47.296 30.336 81.792 71.264 102.72 121.952a19.968 19.968 0 0 1-5.664 22.976l-0.032 0.032c-58.88 49.024-142.432 91.136-235.232 118.624-96.864 28.672-194.176 37.952-273.984 26.112-86.08-12.768-151.872-49.92-190.4-107.488a21.248 21.248 0 0 1-1.824-2.528l-0.064-0.096c-4.96-7.904-19.584-39.872-21.216-43.488a301.44 301.44 0 0 1-8.672-18.88l-2.304-6.016c-1.6-3.808-2.752-6.752-3.552-9.024a30.4 30.4 0 0 1-1.504-5.664l-0.032-0.192a217.632 217.632 0 0 1-4.704-83.776l-0.128 1.12a17.92 17.92 0 0 1-0.352-3.584v-0.448 0.032c0.032-3.424 1.312-84.832 40.672-199.648 25.632-73.568 57.184-137.184 95.456-196l-2.112 3.456a961.504 961.504 0 0 1 178.528-204.992l1.248-1.056a19.84 19.84 0 0 1 28.224 2.048l0.032 0.032a20 20 0 0 1-2.048 28.224l-0.032 0.032a919.68 919.68 0 0 0-169.504 192.96l-2.144 3.456a837.12 837.12 0 0 0-87.392 177.248l-1.856 5.984a569.504 569.504 0 0 0-13.024 40.512l-1.408 5.76c103.264-137.728 300-238.144 438.624-257.376a19.936 19.936 0 0 1 19.584 8.992l0.064 0.064c36 56.448 48.608 116.032 36.256 159.168 125.216-6.464 209.44 18.944 213.28 20.128a20.096 20.096 0 0 1 12.576 26.816l0.064-0.128z m-258.688-4.288a20 20 0 0 1-16.416-33.728c23.264-24.352 16.896-81.12-14.08-135.424-68.032 11.712-147.584 42.72-220.544 86.176-82.432 49.088-150.432 110.08-191.488 171.776-41.088 61.792-54.464 121.376-39.68 177.152a22.336 22.336 0 0 1 0.448 2.048v0.096c3.936 11.104 25.952 58.656 31.264 68.16a12.288 12.288 0 0 1 1.024 1.408l0.032 0.064c32.416 49.248 87.52 79.968 163.744 91.264 74.176 11.008 165.376 2.176 256.736-24.896 80.352-23.776 155.584-60.416 209.184-101.568-21.408-43.584-55.808-77.92-102.4-102.24a20.032 20.032 0 0 1-4.256-32.448c42.816-39.232 105.28-96.448 138.08-157.568-36.384-7.744-113.728-19.872-211.648-10.272z"  horiz-adv-x="1024" />
      
      <glyph glyph-name="dingwei" unicode="&#59032;" d="M515.088762-79.306667c-28.224 0-51.552 21.12-54.176 23.552-0.288 0.288-22.048 21.344-123.488 122.752-75.392 75.328-130.368 166.688-156.416 214.304l-6.336 11.712c-4.8 9.312-7.36 14.496-7.36 14.496a21.344 21.344 0 0 0-1.536 4.096l-0.032 0.16-0.032 0.16a373.856 373.856 0 0 0-34.144 157.376v0.096C131.568762 680.949333 303.664762 852.981333 515.184762 852.981333s383.552-172.064 383.552-383.584c0-54.496-11.52-107.616-34.272-157.856a27.456 27.456 0 0 0-1.664-4.352l0.064 0.16 0.064 0.16-13.888-26.528c-25.92-47.424-80.928-138.592-156.288-214.016-101.472-101.536-123.136-122.464-123.136-122.464-2.88-2.688-26.272-23.808-54.368-23.808zM213.040762 326.005333l10.88-20.832c25.024-45.632 77.184-132.384 148.288-203.36 100.48-100.48 122.368-121.728 122.656-122.016 4.16-3.744 13.888-9.888 20.288-9.888 6.816 0 17.312 7.2 20.512 10.176 0 0 21.984 21.408 122.272 121.728 71.008 70.976 123.264 157.728 148.096 203.168l11.168 21.248c0.288 1.024 0.672 2.016 1.024 2.976 19.712 41.12 31.2 89.408 31.2 140.352 0 184.352-149.984 334.4-334.336 334.4S180.656762 653.909333 180.656762 469.557333c0-48.512 10.464-95.68 31.2-140.352 0.48-1.056 0.896-2.112 1.248-3.168z m302.048-35.616c-98.752 0-179.072 80.32-179.072 179.072S416.336762 648.533333 515.088762 648.533333s179.072-80.32 179.072-179.072-80.352-179.072-179.072-179.072z m0 308.928a129.984 129.984 0 0 1-129.92-129.888c0-71.584 58.304-129.888 129.92-129.888s129.92 58.304 129.92 129.888a130.048 130.048 0 0 1-129.888 129.888z"  horiz-adv-x="1024" />
      
      <glyph glyph-name="haoping" unicode="&#59045;" d="M148.736 111.584a19.968 19.968 0 0 1 0.128-39.936h0.256c1.44-0.032 146.624-0.16 236.864-101.216a19.776 19.776 0 0 1 28.224-1.536h-0.032a19.968 19.968 0 0 1 1.568 28.224l0.032-0.032c-102.56 114.816-260.416 114.624-267.04 114.56z m725.504 0.128c-6.528 0.096-160.992 0.32-267.168-114.336a19.968 19.968 0 0 1 29.312-27.136c93.088 100.544 233.6 101.536 237.408 101.536h0.352a20 20 0 0 1 0.128 40z m-44.96 197.312c33.888 57.536 55.456 124.352 62.4 193.184 6.752 66.944-1.344 132.096-22.848 183.52a19.936 19.936 0 0 1-18.016 12.256h-0.032c-70.944 1.408-136.32-12.448-194.688-41.216-17.664 30.592-44.96 69.024-65.6 95.968-59.296 77.472-72.48 77.472-81.184 77.472s-21.824 0-80.992-76.448c-20.64-26.656-47.968-64.768-65.696-95.104-57.376 27.456-121.344 40.672-190.432 39.328a20 20 0 0 1-17.984-12.128l-0.064-0.128c-21.472-51.424-29.6-116.608-22.816-183.52 6.944-68.832 28.544-135.648 62.4-193.184 59.168-100.512 150.944-163.04 258.816-176.48 1.632-0.576 3.328-0.96 5.088-1.12 0.768-0.064 14.816-1.216 33.6-1.76v-174.592a19.968 19.968 0 1 1 39.936 0v174.624c13.152 0.416 24.96 1.024 36.736 1.888l-2.72-0.16a20.576 20.576 0 0 1 5.376 1.152l-0.128-0.032c107.872 13.472 199.648 76 258.816 176.512zM700.064 224a289.472 289.472 0 0 0-137.376-52.192l-1.312-0.128a17.568 17.568 0 0 1-3.776-0.8l0.128 0.032c-8.416-0.544-27.68-1.632-47.232-1.632-19.328 0-37.248 1.056-45.216 1.6a17.472 17.472 0 0 1-3.648 0.768h-0.064a291.808 291.808 0 0 0-139.52 52.928l0.896-0.608c-37.376 26.528-69.248 61.952-94.752 105.28-59.296 100.704-75.776 233.696-41.856 328.864 64.128-0.672 122.976-15.328 175.04-43.648a19.968 19.968 0 0 1 27.392 8.576l0.064 0.128c23.392 47.264 95.008 140 120.512 163.52 25.536-23.808 97.312-117.76 120.672-165.568a20.096 20.096 0 0 1 27.808-8.64l-0.096-0.064c52.992 29.664 113.184 44.992 179.04 45.632 33.92-95.136 17.44-228.128-41.856-328.832-25.504-43.328-57.408-78.752-94.784-105.28z"  horiz-adv-x="1024" />
      
      <glyph glyph-name="home" unicode="&#59046;" d="M917.953807 490.737981L567.867845 860.406487a112.279649 112.279649 0 0 1-164.019801 0L53.762081 490.737981C17.636768 452.596818 22.276423 419.607272 28.291976 405.816297c4.255683-9.759274 18.622615-36.637275 59.995538-36.637275h51.324182v-284.36285c0-64.5392 45.724599-125.302681 110.679769-125.302681h149.044914v300.90562c0 32.253601 4.799643 68.730888 37.277228 68.730888h123.190838c32.477584 0 37.277228-36.445289 37.277227-68.730888v-300.90562h124.406747c64.955169 0 110.679768 60.763481 110.679768 125.302681v284.36285h51.292186c41.372923 0 55.771852 26.846003 60.027535 36.637275 5.951557 13.790974 10.655208 46.748523-25.470106 84.921684z m-13.151022-87.673479h-105.752134v-318.24833c0-32.253601-45.18064-91.449198-77.594229-91.449199h-91.321208v267.020141c0 64.571198-20.382484 108.791909-85.401649 108.791908h-93.113074c-64.987167 0-85.369651-44.188713-85.369651-108.791908v-267.020141H250.291465c-32.477584 0-77.562231 59.195597-77.562232 91.449199v318.24833H63.713341c-1.023924 0-1.951855 4.0317-2.81579 4.127693 1.983852 3.551736 5.471593 37.149237 11.199167 43.16479L422.214678 819.737512c10.431224 11.071177 49.852292 42.49284 64.155228 42.332852 14.334934 0.159988 52.828071-31.261675 63.291293-42.332852l350.11796-369.380527c5.727574-5.983555 9.151319-14.974886 11.167169-18.526622-0.831938-0.095993-5.055624-28.765861-6.04755-28.765861z"  horiz-adv-x="1024" />
      
      <glyph glyph-name="help" unicode="&#59047;" d="M946.368 422.816C946.368 684.16 734.528 896 473.184 896S0 684.16 0 422.816s211.84-473.184 473.184-473.184c108.512 0 211.488 36.672 294.624 102.88a23.04 23.04 0 1 1-28.8 36.064l0.032 0.032a422.24 422.24 0 0 0-265.12-92.832h-0.768 0.032c-235.808 0-427.008 191.2-427.008 427.008S237.376 849.792 473.184 849.792s427.008-191.2 427.008-427.008c0-80.864-22.464-158.336-64.288-225.472a23.072 23.072 0 0 1 39.136-24.48l0.064 0.096c44.736 70.72 71.264 156.832 71.264 249.12v0.8-0.032z m-453.696-165.824c17.408 0 31.52-14.112 31.52-31.488v-8.352a31.52 31.52 0 0 0-63.04 0v8.352c0 17.376 13.984 31.488 31.52 31.488z m-146.464 252.096s2.496-21.76 26.784-21.76 25.76 21.76 25.76 21.76c-1.632 70.496 31.04 103.968 97.92 100.64 44.512-5.024 67.584-30.144 69.12-75.456-3.072-20.16-19.968-46.24-50.048-78.112-39.808-40.288-59.712-76.32-59.712-108.192v-32.64s3.04-19.488 25.056-19.488 25.056 19.488 25.056 19.488v22.688c0 26.592 19.072 58.592 57.248 95.616 39.968 36.8 59.808 70.4 59.808 100.64-3.296 83.776-46.976 127.456-131.328 130.88-97.056 1.632-145.664-50.4-145.664-156.064z"  horiz-adv-x="1024" />
      
      <glyph glyph-name="profile" unicode="&#59062;" d="M633.408 378.016c90.208 45.952 150.912 138.112 150.912 244.48 0 151.04-122.432 273.472-273.472 273.472a273.472 273.472 0 0 1-124.064-517.248l1.536-0.704c-141.6-42.592-251.072-151.328-293.888-289.408l-0.832-3.104v-110.368a12.8 12.8 0 0 1 12.8-12.8h808.96a12.8 12.8 0 0 1 12.8 12.8v110.368c-43.648 141.184-153.152 249.92-291.68 291.712l-3.104 0.8z m258.368-380.352H130.976v87.84s82.848 226.56 316.192 271.392c0 0 16.704 3.904 16.704 17.44 0 10.656-8.896 16.288-12.704 18.24-102.272 27.552-176.288 119.456-176.288 228.672a236.448 236.448 0 1 0 301.248-227.456l-1.664-0.416v-0.032l-0.224-0.032-1.952-0.512c-4.32-1.376-13.632-5.696-13.632-17.28 0-15.072 16.8-18.816 16.8-18.816s211.04-25.376 316.32-271.136v-87.84z"  horiz-adv-x="1024" />
      
      <glyph glyph-name="shanchu" unicode="&#59063;" d="M558.112 386.752l278.304 276.864a33.536 33.536 0 0 1-22.624 58.432c-9.76 0-18.56-4.16-24.672-10.816l-0.032-0.032-278.368-276.896-275.936 276.8a33.6 33.6 0 0 1-47.488-47.488l-0.032 0.032-0.032 0.032 275.872-276.736-278.176-276.704a33.568 33.568 0 0 1 23.648-57.376h0.032c8.576 0 17.12 3.264 23.68 9.76l278.24 276.768 278.464-279.328c6.56-6.592 15.136-9.856 23.776-9.856h0.032a33.536 33.536 0 0 1 23.712 57.248l-278.4 279.232z m0 0"  horiz-adv-x="1024" />
      
      <glyph glyph-name="search" unicode="&#59071;" d="M709.504 237.44a391.904 391.904 0 0 1 100.768 263.04v0.576-0.032C810.272 719.136 633.44 896 415.296 896S20.32 719.136 20.32 501.024c0-218.176 176.832-395.04 394.976-395.04h0.544c99.264 0 189.92 36.736 259.136 97.376l-0.448-0.384 240.192-240.192 34.72 34.72-239.968 239.968z m-294.272-82.592c-190.848 0-346.144 155.328-346.144 346.176 0 190.784 155.264 346.176 346.144 346.176S761.376 691.84 761.376 501.024c0-190.848-155.264-346.176-346.144-346.176z"  horiz-adv-x="1024" />
      
      <glyph glyph-name="camera" unicode="&#59076;" d="M784 528a36.8 36.8 0 0 1 73.6 0 36.8 36.8 0 0 1-73.6 0zM299.2 347.2C299.2 227.2 396.8 128 518.4 128s217.6 97.6 217.6 219.2-97.6 219.2-219.2 219.2-217.6-99.2-217.6-219.2z m219.2 169.6c94.4 0 169.6-76.8 169.6-169.6s-76.8-171.2-169.6-171.2-169.6 76.8-169.6 169.6 75.2 171.2 169.6 171.2zM299.2 736h145.6c12.8 0 24 11.2 24 24s-11.2 24-24 24H299.2c-12.8 0-24-11.2-24-24 0-14.4 11.2-24 24-24z m582.4-25.6H492.8c-12.8 0-24-11.2-24-24s11.2-24 24-24h388.8c40 0 73.6-32 73.6-73.6v-486.4c0-40-32-73.6-73.6-73.6H153.6c-40 0-73.6 32-73.6 73.6V588.8c0 40 32 73.6 73.6 73.6h97.6c12.8 0 24 11.2 24 24s-11.2 24-24 24H153.6C86.4 710.4 32 656 32 588.8v-486.4c0-67.2 54.4-121.6 121.6-121.6h728c67.2 0 121.6 54.4 121.6 121.6V588.8c0 67.2-54.4 121.6-121.6 121.6z"  horiz-adv-x="1024" />
      
      <glyph glyph-name="arrow-right" unicode="&#59083;" d="M763.648 407.285333L328.096 846.037333c-9.696 9.696-25.824 9.696-35.488 0s-9.696-25.824 0-35.488l419.424-419.424-419.424-429.12c-9.696-9.696-9.696-25.824 0-35.488s25.824-9.696 35.488 0l435.552 445.248a25.28 25.28 0 0 1 0 35.488z"  horiz-adv-x="1024" />
      
      <glyph glyph-name="wushuju" unicode="&#59086;" d="M1272.192 792.576H455.04a59.072 59.072 0 0 1-59.136-59.168v-562.624c0-32.544 26.624-59.168 59.136-59.168h44.448c3.264-9.472 8.384-17.568 14.976-24.224a13.76 13.76 0 0 1 6.624-3.872l0.096-0.032c74.08-19.168 92.448-43.104 96.8-55.616 4.928-13.92-1.184-30.624-6.848-35.712-8.928-8 11.296-35.296 30.656-1.056 9.056 16 4.16 45.792 4.16 45.792-14.304 32.608-49.28 55.616-113.472 72.896-5.376 6.4-7.008 11.616-7.008 15.808v0.064c0 5.728 3.584 11.424 10.08 16.352l0.512 0.416c2.24 1.664 4.768 3.2 7.456 4.512l0.288 0.128c2.688 1.344 5.856 2.336 8.928 3.488 4.96 1.152 13.792 2.752 28.032 2.752 24.8 0 53.792-4.832 85.888-14.4 5.408-2.432 10.848-4.768 16.16-7.68 10.016-5.376 18.368-10.528 26.368-16.16l-0.832 0.544 1.824-1.088c108.352-76.192 96.288-114.592 96.32-114.592a14.048 14.048 0 0 1 0.48-13.984l-0.032 0.064a14.272 14.272 0 0 1 12.096-6.912h0.096a14.08 14.08 0 0 1 12.448 7.456l0.032 0.064c4.448 8.448 19.232 50.976-70.72 124.736h250.816c-89.824-73.696-75.008-116.16-70.592-124.544 2.56-4.704 7.424-7.84 13.024-7.872a13.792 13.792 0 0 1 6.304 1.632 13.696 13.696 0 0 1 6.016 18.816l0.032-0.064c-0.064 0.416-12.896 38.88 96.128 115.328 12.576 8.96 26.88 17.12 41.984 23.776l1.568 0.608c32.128 9.408 61.056 14.336 85.696 14.336 14.176 0 23.04-1.6 27.904-2.816 3.104-1.088 6.368-2.144 8.992-3.584 0.544-0.32 1.024-0.48 1.536-0.672 2.368-1.344 4.64-2.688 6.528-4.032l0.352-0.288c6.4-4.992 10.016-10.624 10.08-16.416l0.16-0.128a25.28 25.28 0 0 0-7.008-15.744c-64-17.216-101.888-41.76-112.544-73.024l-0.352 0.128s-4.896-29.792 4.16-45.792c19.36-34.208 39.584-6.944 30.656 1.056-5.664 5.088-11.776 21.792-6.848 35.712l-0.512 0.16c4.512 12.704 23.328 36.384 96.8 55.456a14.208 14.208 0 0 1 6.592 3.904c6.656 6.656 11.808 14.784 14.976 23.84l0.128 0.448a59.2 59.2 0 0 1 57.824 59.168V733.312a59.264 59.264 0 0 1-59.136 59.168z m-602.848-541.44c17.472-45.152 6.72-70.912-0.608-81.824l-3.712 1.472a216.192 216.192 0 0 1-47.552 12.352l-1.216 0.128c-1.344 0.192-2.688 0.384-4.032 0.48a187.456 187.456 0 0 1-20.864 1.344h-0.096l-4.576-0.128a140.608 140.608 0 0 1-16.416-1.216l-4.16-0.48c-1.088-0.192-2.016-0.48-3.168-0.608 4.992 23.456 8.288 58.24-7.2 81.44-16.544 25.024-20.416 102.08-0.256 160.192 8.736 24.896-1.664 70.208-9.152 96.16h126.048c5.376-18.816 14.368-66.432-6.976-126.56l-1.472-4.16c-10.272-28.8-23.2-64.64 5.376-138.592z m547.84 12.768c-15.456-23.2-12.096-57.952-7.2-81.376l-3.36 0.544-2.816 0.288a167.456 167.456 0 0 1-18.176 1.408h-0.224l-2.496 0.16a211.008 211.008 0 0 1-80.128-16.352l1.408 0.512c-7.392 10.912-18.144 36.736-0.672 81.92h0.064c28.544 74.112 15.648 109.952 5.376 138.752l-1.536 4.032c-21.312 60.256-12.16 107.872-6.848 126.56h126.112c-7.456-25.824-17.888-71.104-9.152-96.16 20.032-58.24 16.256-135.296-0.352-160.256z m85.792-93.12a30.912 30.912 0 0 0-29.568-30.816 47.04 47.04 0 0 1-9.184 15.648l0.032-0.032-2.56 2.56a59.488 59.488 0 0 1-6.912 6.08l-0.16 0.096-2.496 1.888a84 84 0 0 1-6.08 3.84l-0.384 0.192-2.752 1.824-1.024 0.384s-0.128 0-0.128 0.16c-5.408 18.176-13.408 57.312-1.024 75.872 23.68 35.552 25.28 122.112 3.488 185.216-5.856 17.024 3.296 58.784 11.904 86.88h5.568a14.208 14.208 0 0 1 0 28.448h-183.712a14.112 14.112 0 1 1-19.712-17.6l0.064-0.032a14.208 14.208 0 0 1 13.152-9.088c-6.304-25.28-13.184-75.264 9.088-137.792l1.472-4.224c9.216-25.6 19.616-54.688-5.056-118.816-20.16-52.064-9.696-85.888 1.088-104.032a306.016 306.016 0 0 1-28.576-17.28H723.456l-2.816 1.696a264.864 264.864 0 0 1-24.608 15.072l-1.472 0.736c10.752 18.144 21.248 52.064 1.056 103.968-24.8 64.032-14.368 93.056-5.184 118.688l1.6 4.384c22.176 62.528 15.392 112.384 9.088 137.728a14.176 14.176 0 0 1 7.296 15.968l0.032-0.096a14.176 14.176 0 0 1-13.728 10.848h-183.52a14.176 14.176 0 0 1 0-28.352h5.504c8.608-28.256 17.76-69.952 11.904-86.912-21.44-61.856-19.776-150.176 3.52-185.216 12.288-18.496 4.352-57.696-1.024-75.936-0.288-0.224-0.832-0.256-1.088-0.48l-3.104-1.888c-2.496-1.408-4.48-2.656-6.4-3.968l0.352 0.224-2.752-2.016a54.848 54.848 0 0 1-6.72-5.92l-0.96-0.928c-0.576-0.608-1.344-1.152-1.888-1.76-1.696-2.016-3.104-4.16-4.512-6.24l-0.064-0.224a42.88 42.88 0 0 1-4.48-8.992l-0.096-0.32h-44.416a30.816 30.816 0 0 0-30.784 30.816V733.632a30.816 30.816 0 0 0 30.784 30.784h817.088a30.848 30.848 0 0 0 30.784-30.784l-0.128-562.816h0.064zM1036.704 651.936c-2.336-1.472-5.92-4.032-10.496-7.264-19.552-14.336-60.224-43.968-108.352-43.968a14.176 14.176 0 0 1 0-28.352c57.184 0 102.976 33.344 125.024 49.408 3.552 2.56 6.304 4.704 8.352 5.856a14.208 14.208 0 0 1-14.528 24.352z m-203.136-65.44a14.176 14.176 0 0 1-14.176 14.112c-48.064 0-88.736 29.728-108.352 44.064a128.192 128.192 0 0 1-10.048 6.976l-0.512 0.288a14.24 14.24 0 0 1-14.528-24.448l0.064-0.032c1.888-1.152 4.704-3.168 8.192-5.856 22.048-16.064 67.808-49.408 125.024-49.408a14.4 14.4 0 0 1 14.336 14.304z m131.2-319.968l-95.392 42.912a14.112 14.112 0 0 1-12.32-0.384l0.064 0.032-84.384-42.752a14.016 14.016 0 0 1-7.072-8.16l-0.032-0.096a13.984 13.984 0 0 1 0.896-10.912l-0.032 0.064a14.272 14.272 0 0 1 19.104-6.24l78.304 39.68 89.216-39.936a14.016 14.016 0 0 1 18.72 6.976l0.032 0.096a14.176 14.176 0 0 1-7.04 18.72l-0.096 0.032zM197.504 562.08H165.76v31.744a15.84 15.84 0 0 1-31.68 0v-31.744h-31.744a15.84 15.84 0 0 1 0-31.68h31.744v-31.744a15.84 15.84 0 0 1 31.68 0v31.744h31.744a15.84 15.84 0 0 1 0 31.68z m1356.448-300.864h-31.744v31.744a15.84 15.84 0 0 1-31.68 0v-31.744h-31.744a15.84 15.84 0 0 1 0-31.68h31.744v-31.744a15.84 15.84 0 0 1 31.68 0v31.744h31.744a15.84 15.84 0 0 1 0 31.68z m-1244.224 27.968h-26.304v26.304a13.12 13.12 0 0 1-26.24 0v-26.304h-26.304a13.12 13.12 0 1 1 0-26.24h26.304v-26.304a13.12 13.12 0 0 1 26.24 0v26.304h26.304a13.12 13.12 0 1 1 0 26.24z"  horiz-adv-x="1760" />
      
      <glyph glyph-name="zhongping" unicode="&#59097;" d="M148.736 147.392a19.968 19.968 0 0 1 0.128-39.936h0.256c1.44-0.032 146.624-0.16 236.864-101.216a19.776 19.776 0 0 1 28.224-1.536h-0.032a19.968 19.968 0 0 1 1.568 28.224l0.032-0.032c-102.56 114.816-260.416 114.624-267.04 114.56z m725.504 0.128c-6.528 0.096-160.992 0.32-267.168-114.336a19.968 19.968 0 0 1 29.312-27.136c93.088 100.544 233.6 101.536 237.408 101.536h0.352a20 20 0 0 1 0.128 40z m-13.472 447.616a1210.56 1210.56 0 0 1-85.024 13.472l-7.264 0.736-8.64 1.024 0.128 8.704v3.616c0 33.792-3.232 66.848-9.408 98.848l0.512-3.264c-8.704 44.096-22.816 71.552-40.768 79.424a39.328 39.328 0 0 1-15.168 2.976h-0.992 0.064c-58.528 0-158.464-85.024-159.456-85.856l-6.816-5.856-6.336 6.368c-0.288 0.288-29.024 29.216-62.24 57.856-58.528 50.496-79.392 55.936-85.664 55.936-1.792 0-1.92-0.256-2.208-0.928l-16.128-36.704C319.296 709.536 290.784 644.8 269.44 576.096c-25.024-149.184 23.552-265.632 140.48-336.768l7.136-4.352-3.296-7.68a68.896 68.896 0 0 1-4.416-16.864l-0.032-0.352c-2.432-64.768 49.28-197.024 71.904-239.232l1.088-1.984c15.232-25.92 30.528-36.64 45.536-31.52a15.296 15.296 0 0 1 9.312 7.552l0.032 0.096c2.976 6.144 1.248 14.016-0.704 19.552l-0.352 0.928c-1.184 3.2-2.752 6.4-4.608 9.6l-0.32 0.544c-19.136 40.064-63.968 141.824-67.456 221.568l-0.64 14.592 13.696-5.152a284.832 284.832 0 0 1 102.112-19.36h0.096c93.888 0 183.584 50.624 259.392 146.4 45.088 56.96 78.144 132.512 116.416 220l4.512 10.272c-2.368 3.232-16.48 15.584-98.656 31.136z m30.368-79.168c-29.568-67.552-55.168-116.128-98.528-164.608-29.632-33.152-64.224-60.736-100.032-79.84-40.064-21.344-81.056-32.16-121.856-32.16a230.496 230.496 0 0 0-99.808 22.848l1.376-0.608c-60.192 26.368-106.752 67.968-134.656 120.256-27.104 50.752-36.64 111.488-27.616 175.584 5.12 36.288 24.8 77.728 47.552 125.76 9.088 19.136 18.464 38.912 27.584 59.776l1.12 2.528 2.272 1.568a19.904 19.904 0 0 0 11.136 3.392h0.352-0.032c6.816 0 24.896 0 82.976-58.816 14.912-15.2 29.504-31.008 43.616-47.232l1.12-1.312c23.936 23.392 95.392 89.472 138.368 89.472 5.408 0 10.368-0.992 14.784-2.912 21.472-9.408 33.376-42.08 36.48-99.968 1.472-27.648 0.512-53.76-0.32-68.384 4.16 0.064 8.448 0.096 12.864 0.096 25.216 0 61.952-0.928 93.664-5.312 44.256-6.144 65.952-17.248 68.224-35.008l0.352-2.656-1.056-2.432z"  horiz-adv-x="1024" />
      
      <glyph glyph-name="radio" unicode="&#58880;" d="M509.305123 834.034716c-248.552889 0-450.036763-201.485921-450.036763-450.033693 0-248.546749 201.483874-450.03267 450.036763-450.03267 248.540609 0 450.0296 201.484897 450.0296 450.03267C959.334723 632.548796 757.845733 834.034716 509.305123 834.034716zM776.005324 520.249127l-317.132824-320.432986c-0.058328-0.113587-0.170892-0.113587-0.286526-0.229221-0.113587-0.058328-0.113587-0.290619-0.290619-0.290619-2.413979-2.530636-5.351891-3.797489-8.229428-5.41022-1.441838-0.860601-2.534729-2.071172-4.03285-2.64934-4.544503-1.896186-9.381671-2.762927-14.216793-2.762927-4.89345 0-9.7869 0.867764-14.392802 2.883677-1.497097 0.688685-2.705622 1.896186-4.14746 2.705622-2.820232 1.554402-5.810333 3.047406-8.230452 5.466502-0.057305 0.058328-0.11461 0.172939-0.170892 0.286526-0.058328 0.058328-0.232291 0.058328-0.290619 0.290619L247.851413 360.932632c-14.680351 15.027252-14.275121 39.151695 0.808412 53.892421 15.026228 14.508435 39.09132 14.276145 53.712319-0.923022l129.672338-133.021619 289.844318 292.910143c14.679327 14.968923 38.744419 15.087627 53.712319 0.288572C790.512736 559.342494 790.73991 535.1617679999999 776.005324 520.249127z"  horiz-adv-x="1024" />
      
      <glyph glyph-name="dingdan" unicode="&#58895;" d="M823.652174-61.217391H200.347826a89.043478 89.043478 0 0 0-89.043478 89.043478V740.173913a89.043478 89.043478 0 0 0 89.043478 89.043478h623.304348a89.043478 89.043478 0 0 0 89.043478-89.043478v-712.347826a89.043478 89.043478 0 0 0-89.043478-89.043478zM289.391304 161.391304h311.652174a44.521739 44.521739 0 0 1 0 89.043479H289.391304a44.521739 44.521739 0 0 1 0-89.043479z m445.217392 489.739131H289.391304a44.521739 44.521739 0 0 1 0-89.043478h445.217392a44.521739 44.521739 0 0 1 0 89.043478z m0-200.347826H289.391304a44.521739 44.521739 0 1 1 0-89.043479h445.217392a44.521739 44.521739 0 1 1 0 89.043479z"  horiz-adv-x="1024" />
      
      <glyph glyph-name="erweima" unicode="&#58881;" d="M62.996776 411.93830601l423.162696-2e-8L486.159472 835.09997801 62.996776 835.09997801 62.996776 411.93830601zM168.78821799 729.30956l211.58083602 0-2e-8-211.580836L168.78821799 517.728724 168.78821799 729.30956zM539.055193 835.09997801l0-423.162696 423.162696 0L962.217888 835.09997801 539.055193 835.09997801zM856.426447 517.728724L644.845611 517.728724 644.845611 729.30956l211.580836 0L856.426447 517.728724zM221.682915 570.623421l105.790418 0L327.473333 676.414863 221.682915 676.414863 221.682915 570.623421zM62.996776-64.12011099999995l423.162696 0L486.159472 359.04258500000003 62.996776 359.04258500000003 62.996776-64.12011099999995zM168.78821799 253.252167l211.58083602 0-2e-8-211.580836L168.78821799 41.67133100000001 168.78821799 253.252167zM803.531749 676.414863L697.740308 676.414863l0-105.790418 105.79041799 0L803.53072601 676.414863zM539.055193-64.12011099999995l105.790418 0L644.845611 41.67030799999998 539.055193 41.67030799999998 539.055193-64.12011099999995zM644.845611 253.252167l0-211.580836 105.790418 0L750.636029 253.252167 644.845611 253.252167zM856.426447 41.67030799999998L750.636029 41.67030799999998 750.636029-64.12011099999995l211.580836 0L962.216865 147.46174900000005 856.426447 147.46174900000005 856.426447 41.67030799999998zM856.426447 253.252167l105.790418 0L962.216865 359.04258500000003 856.426447 359.04258500000003 856.426447 253.252167zM539.055193 359.04258500000003l0-105.790418 105.790418 0L644.845611 359.04258500000003 539.055193 359.04258500000003zM221.682915 94.56602799999996l105.790418 0L327.473333 200.35644601 221.682915 200.35644601 221.682915 94.56602799999996z"  horiz-adv-x="1024" />
      
      <glyph glyph-name="tuandui" unicode="&#59089;" d="M847.62529297 181.49999999c0 3.75029297-1.87558594 7.49970703-3.75029297 13.12470704 0 1.87558594 0 3.75029297-1.87470703 5.625-1.87558594 5.625-3.75029297 11.25-7.50058594 16.875v1.87558594c-1.87470702 5.625-5.625 9.37441406-7.49970703 14.99941406-1.87470702 1.87558594-1.87470702 3.75029297-3.75029297 5.625-1.87470702 3.75029297-5.625 7.50058594-7.49970703 11.25000001-1.87470702 1.87558594-1.87470702 3.75029297-3.75029297 3.75029296-3.74941406 3.75029297-7.49970703 9.37529297-13.12470703 13.12470703l-1.87470703 1.87558594-11.25 11.25c-1.87558594 1.87470702-3.75029297 3.74941406-5.62500001 3.74941406-3.75029297 1.87558594-7.50058594 5.625-9.37529296 7.50058595-1.87470702 1.87470702-3.75029297 1.87470702-5.625 3.74941406-5.625 3.75029297-11.25 7.50058594-15.00029297 9.37529296-1.87470702 1.87470702-3.74941406 1.87470702-5.625 1.87470703-3.74941406 1.87558594-7.49970703 3.75029297-13.12470703 7.50058594-1.87470702 1.87470702-5.625 1.87470702-7.49970703 3.74941406l-11.25 5.625c-1.87558594 1.87558594-5.625 1.87558594-7.50058594 3.75029297l-16.875 5.625c-14.99941406 5.625-28.125 9.37529297-43.12441407 11.25C701.37529297 389.625 737 466.50029297 737 552.75c0 144.37529297-101.25 262.50029297-225 262.50029297S287 697.12529296 287 552.75c0-86.24970703 35.62470703-163.125 90-209.99970703-13.12470703-1.87558594-28.125-5.625-43.12529296-11.25l-16.87500001-5.625c-1.87470702-1.87558594-5.625-1.87558594-7.49970702-3.75029297l-11.25000001-5.62499999c-1.87470702-1.87470702-5.625-1.87470702-7.49970703-3.75029298-3.75029297-1.87470702-7.50058594-3.74941406-13.12558594-7.49970703-1.87470702-1.87470702-3.74941406-1.87470702-5.625-1.87470703-5.625-3.75029297-11.25-7.50058594-14.99941406-9.37529297-1.87558594-1.87470702-3.75029297-1.87470702-5.625-3.75029297-3.75029297-1.87470702-7.50058594-5.625-9.37529297-7.49970703-1.87470702-1.87470702-3.75029297-3.75029297-5.625-3.75029297l-11.25-11.25-1.87470703-1.87470703-13.12558594-13.12470703c-1.87470702-1.87558594-1.87470702-3.75029297-3.74941406-3.75029297-1.87558594-3.75029297-5.625-7.49970703-7.50058593-11.25-1.87470702-1.87470702-1.87470702-3.75029297-3.74941406-5.625-1.87558594-7.49970703-3.75029297-11.25-5.62500001-16.875v-1.87470703c-1.87558594-5.625-5.625-11.25-7.50058594-16.875 0-1.87558594-1.87470702-3.75029297-1.87470703-5.625-1.87470702-3.75029297-1.87470702-7.50058594-3.75029297-13.12558594v-5.625C174.49999999 170.25 174.49999999 164.625 174.49999999 159v-18.74970703c0-103.12558594 46.87470704-187.50058594 150.00029298-187.50058594h374.99941406c103.12558594 0 150.00029297 84.375 150.00029296 187.50058594V159c0 5.625 0 11.25-1.87470702 16.875v5.62500001zM377 593.9997070300001c13.12470703 46.87558594 41.24970703 84.375 74.99970703 106.87499999 13.12558594 7.50058594 28.125-1.87470702 28.125-16.87499999 0-5.625-3.74941406-11.25-9.37441406-14.99941406-28.125-16.875-48.75029297-46.87558594-60.00029297-86.25058594-1.87470702-7.49970703-9.37529297-13.12470703-18.74970703-13.12470703-7.50058594 0-16.875 13.12470703-15.00029297 24.37470703zM324.50029297 357.74970702999997c-45 48.75029297-75.00058594 118.125-75.00058594 195.00029297 0 56.25 15.00029297 106.875 41.25058594 150.00029297H287c-82.50029297 0-150.00029297-76.87529297-150.00029297-170.62558594 0-56.25 24.37558594-104.99941406 60.00029297-136.87470703C133.25029297 382.12529298000004 62 333.375 62 275.25029297000003v-13.12558594C62 204 86.37470703 155.24970702999997 136.99970703 142.125v35.62470703c0 86.25058594 95.625 157.50000001 187.50058594 180zM827 395.25c37.50029297 31.87529297 60.00029297 80.62470703 60.00029297 136.87470703 0 93.75029297-67.50000001 170.62558594-150.00029297 170.62558594h-3.75029297C759.50000001 659.625 774.50029297 609 774.50029297 552.75c0-76.87529297-28.125-146.25-75.00058594-195.00029297 91.87558594-22.50000001 187.50058594-93.74941406 187.50058594-180V142.125c50.625 11.25 74.99970703 60.00029297 74.99970703 119.99970703v13.12558594c0 58.12470703-71.25029297 106.875-135 119.99970703z"  horiz-adv-x="1024" />
      
      </font>
</defs>
</svg>
